<?xml version="1.0" encoding="UTF-8"?>
<svg xmlns="http://www.w3.org/2000/svg" xmlns:xlink="http://www.w3.org/1999/xlink" width="735pt" height="437pt" viewBox="0 0 735 437" version="1.1">
<g id="surface1">
<path style=" stroke:none;fill-rule:evenodd;fill:rgb(100%,100%,100%);fill-opacity:1;" d="M 255 341.398438 L 273 341.398438 L 273 269.398438 L 255 269.398438 Z M 255 341.398438 "/>
<path style=" stroke:none;fill-rule:nonzero;fill:rgb(24.705505%,24.705505%,24.705505%);fill-opacity:1;" d="M 258.328125 295.507813 C 258.328125 294.734375 258.738281 294.339844 259.53125 294.339844 C 260.359375 294.339844 260.792969 294.753906 260.792969 295.5625 C 260.792969 296.335938 260.359375 296.75 259.566406 296.75 C 258.738281 296.75 258.328125 296.335938 258.328125 295.507813 "/>
<path style="fill:none;stroke-width:5.14;stroke-linecap:butt;stroke-linejoin:miter;stroke:rgb(24.705505%,24.705505%,24.705505%);stroke-opacity:1;stroke-miterlimit:10;" d="M 2583.28125 1414.921875 C 2583.28125 1422.65625 2587.382813 1426.601563 2595.3125 1426.601563 C 2603.59375 1426.601563 2607.929688 1422.460938 2607.929688 1414.375 C 2607.929688 1406.640625 2603.59375 1402.5 2595.664063 1402.5 C 2587.382813 1402.5 2583.28125 1406.640625 2583.28125 1414.921875 Z M 2583.28125 1414.921875 " transform="matrix(0.1,0,0,-0.1,0,437)"/>
<path style=" stroke:none;fill-rule:nonzero;fill:rgb(24.705505%,24.705505%,24.705505%);fill-opacity:1;" d="M 258.324219 305.191406 C 258.324219 304.417969 258.738281 304.023438 259.53125 304.023438 C 260.359375 304.023438 260.792969 304.4375 260.792969 305.246094 C 260.792969 306.019531 260.359375 306.433594 259.566406 306.433594 C 258.738281 306.433594 258.324219 306.019531 258.324219 305.191406 "/>
<path style="fill:none;stroke-width:5.14;stroke-linecap:butt;stroke-linejoin:miter;stroke:rgb(24.705505%,24.705505%,24.705505%);stroke-opacity:1;stroke-miterlimit:10;" d="M 2583.242188 1318.085938 C 2583.242188 1325.820313 2587.382813 1329.765625 2595.3125 1329.765625 C 2603.59375 1329.765625 2607.929688 1325.625 2607.929688 1317.539063 C 2607.929688 1309.804688 2603.59375 1305.664063 2595.664063 1305.664063 C 2587.382813 1305.664063 2583.242188 1309.804688 2583.242188 1318.085938 Z M 2583.242188 1318.085938 " transform="matrix(0.1,0,0,-0.1,0,437)"/>
<path style=" stroke:none;fill-rule:nonzero;fill:rgb(24.705505%,24.705505%,24.705505%);fill-opacity:1;" d="M 258.328125 314.875 C 258.328125 314.101563 258.738281 313.707031 259.53125 313.707031 C 260.359375 313.707031 260.792969 314.121094 260.792969 314.929688 C 260.792969 315.703125 260.359375 316.117188 259.566406 316.117188 C 258.738281 316.117188 258.328125 315.703125 258.328125 314.875 "/>
<path style="fill:none;stroke-width:5.14;stroke-linecap:butt;stroke-linejoin:miter;stroke:rgb(24.705505%,24.705505%,24.705505%);stroke-opacity:1;stroke-miterlimit:10;" d="M 2583.28125 1221.25 C 2583.28125 1228.984375 2587.382813 1232.929688 2595.3125 1232.929688 C 2603.59375 1232.929688 2607.929688 1228.789063 2607.929688 1220.703125 C 2607.929688 1212.96875 2603.59375 1208.828125 2595.664063 1208.828125 C 2587.382813 1208.828125 2583.28125 1212.96875 2583.28125 1221.25 Z M 2583.28125 1221.25 " transform="matrix(0.1,0,0,-0.1,0,437)"/>
<path style="fill-rule:evenodd;fill:rgb(88.671875%,94.53125%,96.09375%);fill-opacity:1;stroke-width:15;stroke-linecap:round;stroke-linejoin:round;stroke:rgb(19.213867%,52.146912%,60.742188%);stroke-opacity:1;stroke-miterlimit:10;" d="M 7.5 1631.015625 L 1087.5 1631.015625 L 1087.5 2711.015625 L 7.5 2711.015625 Z M 7.5 1631.015625 " transform="matrix(0.1,0,0,-0.1,0,437)"/>
<path style=" stroke:none;fill-rule:nonzero;fill:rgb(24.705505%,24.705505%,24.705505%);fill-opacity:1;" d="M 45.984375 211.34375 L 43.609375 218.710938 L 48.265625 218.710938 Z M 49.367188 227.160156 L 49.367188 226.65625 L 49.921875 226.246094 C 50.136719 226.078125 50.28125 225.839844 50.28125 225.574219 C 50.28125 225.335938 50.234375 225.046875 50.113281 224.6875 L 48.695313 220.152344 L 43.128906 220.152344 L 41.664063 224.6875 C 41.542969 225.046875 41.496094 225.335938 41.496094 225.574219 C 41.496094 225.839844 41.617188 226.078125 41.832031 226.246094 L 42.410156 226.65625 L 42.410156 227.160156 L 38.230469 227.160156 L 38.230469 226.65625 L 38.714844 226.246094 C 39.023438 225.984375 39.3125 225.457031 39.695313 224.375 L 44.855469 209.78125 L 47.570313 209.085938 L 52.464844 224.160156 C 52.875 225.429688 53.136719 225.960938 53.496094 226.246094 L 54 226.65625 L 54 227.160156 Z M 49.367188 227.160156 "/>
<path style=" stroke:none;fill-rule:nonzero;fill:rgb(24.705505%,24.705505%,24.705505%);fill-opacity:1;" d="M 56.308594 217.046875 C 55.167969 215.566406 54.65625 213.554688 54.65625 210.652344 C 54.65625 207.738281 55.167969 205.742188 56.308594 204.242188 C 56.761719 203.667969 57.320313 203.152344 57.867188 202.855469 L 58.398438 203.542969 C 57.898438 203.882813 57.429688 204.320313 57.058594 204.820313 C 56.652344 205.398438 56.324219 206.097656 56.105469 206.878906 C 55.777344 208.003906 55.667969 209.03125 55.667969 210.652344 C 55.667969 212.277344 55.792969 213.351563 56.105469 214.425781 C 56.558594 215.921875 57.335938 217.046875 58.398438 217.765625 L 57.867188 218.449219 C 57.320313 218.152344 56.761719 217.640625 56.308594 217.046875 "/>
<path style=" stroke:none;fill-rule:nonzero;fill:rgb(24.705505%,24.705505%,24.705505%);fill-opacity:1;" d="M 62.765625 212.757813 C 62.765625 213.945313 63.09375 214.285156 64.199219 214.285156 C 64.589844 214.285156 64.980469 214.238281 65.355469 214.128906 L 65.355469 214.410156 C 64.792969 214.988281 64.058594 215.300781 63.203125 215.300781 C 62.5 215.300781 61.9375 215.082031 61.628906 214.675781 C 61.347656 214.316406 61.253906 213.894531 61.253906 213.007813 L 61.253906 207.597656 L 60.300781 207.597656 L 60.300781 207.144531 C 60.847656 206.863281 61.207031 206.597656 61.457031 206.195313 C 61.660156 205.867188 61.832031 205.398438 61.972656 204.804688 L 62.765625 204.804688 L 62.765625 206.722656 L 65.355469 206.722656 L 65.355469 207.597656 L 62.765625 207.597656 Z M 62.765625 212.757813 "/>
<path style=" stroke:none;fill-rule:nonzero;fill:rgb(24.705505%,24.705505%,24.705505%);fill-opacity:1;" d="M 69.066406 217.046875 C 68.617188 217.640625 68.039063 218.152344 67.507813 218.449219 L 66.980469 217.765625 C 67.539063 217.375 67.945313 216.984375 68.304688 216.484375 C 68.726563 215.910156 69.035156 215.207031 69.253906 214.425781 C 69.582031 213.304688 69.707031 212.277344 69.707031 210.652344 C 69.707031 209.015625 69.566406 207.957031 69.253906 206.878906 C 68.804688 205.367188 68.039063 204.257813 66.980469 203.542969 L 67.507813 202.855469 C 68.039063 203.152344 68.617188 203.667969 69.066406 204.242188 C 70.207031 205.742188 70.722656 207.738281 70.722656 210.652344 C 70.722656 213.554688 70.207031 215.566406 69.066406 217.046875 "/>
<path style="fill-rule:evenodd;fill:rgb(93.359375%,91.796875%,94.921875%);fill-opacity:1;stroke-width:15;stroke-linecap:round;stroke-linejoin:round;stroke:rgb(49.414063%,39.208984%,61.914063%);stroke-opacity:1;stroke-miterlimit:10;" d="M 3720 3251.015625 L 4912.5 3251.015625 L 4912.5 3611.015625 L 3720 3611.015625 Z M 3720 3251.015625 " transform="matrix(0.1,0,0,-0.1,0,437)"/>
<path style=" stroke:none;fill-rule:nonzero;fill:rgb(24.705505%,24.705505%,24.705505%);fill-opacity:1;" d="M 397.949219 97.648438 C 398.300781 97.453125 398.355469 97.269531 398.355469 96.414063 L 398.355469 88.371094 C 398.285156 88.875 398.246094 89.070313 398.074219 89.535156 L 394.929688 98.140625 L 393.976563 98.140625 L 390.832031 89.535156 C 390.664063 89.070313 390.621094 88.875 390.550781 88.371094 L 390.550781 96.414063 C 390.550781 97.269531 390.621094 97.453125 390.972656 97.648438 L 391.324219 97.84375 L 391.324219 98.140625 L 388.765625 98.140625 L 388.765625 97.84375 L 389.132813 97.648438 C 389.484375 97.453125 389.539063 97.269531 389.539063 96.414063 L 389.539063 89.550781 C 389.539063 88.691406 389.484375 88.511719 389.132813 88.3125 L 388.765625 88.117188 L 388.765625 87.820313 L 391.660156 87.820313 L 394.46875 95.542969 C 394.59375 95.90625 394.636719 96.078125 394.707031 96.527344 C 394.75 96.089844 394.804688 95.90625 394.929688 95.558594 L 397.738281 87.820313 L 400.503906 87.820313 L 400.503906 88.117188 L 400.152344 88.3125 C 399.789063 88.511719 399.730469 88.691406 399.730469 89.550781 L 399.730469 96.414063 C 399.730469 97.269531 399.789063 97.453125 400.152344 97.648438 L 400.503906 97.84375 L 400.503906 98.140625 L 397.585938 98.140625 L 397.585938 97.84375 Z M 397.949219 97.648438 "/>
<path style=" stroke:none;fill-rule:nonzero;fill:rgb(24.705505%,24.705505%,24.705505%);fill-opacity:1;" d="M 406.515625 93.144531 C 406.515625 91.851563 406.023438 91.21875 404.953125 91.21875 C 403.832031 91.21875 403.230469 92.003906 403.199219 93.480469 Z M 405.125 98.265625 C 402.960938 98.265625 401.796875 96.960938 401.796875 94.53125 C 401.796875 91.949219 403.074219 90.40625 405.195313 90.40625 C 407.105469 90.40625 407.988281 91.5 407.988281 93.871094 L 407.988281 94.027344 L 403.1875 94.027344 L 403.1875 94.183594 C 403.1875 96.441406 403.945313 97.296875 405.9375 97.296875 C 406.554688 97.296875 407.171875 97.1875 407.75 96.976563 L 407.75 97.253906 C 407.046875 97.957031 406.234375 98.265625 405.125 98.265625 "/>
<path style=" stroke:none;fill-rule:nonzero;fill:rgb(24.705505%,24.705505%,24.705505%);fill-opacity:1;" d="M 418.195313 98.140625 L 418.195313 97.84375 L 418.546875 97.648438 C 418.894531 97.453125 418.953125 97.269531 418.953125 96.414063 L 418.953125 93.871094 C 418.953125 92.75 418.9375 92.539063 418.828125 92.214844 C 418.644531 91.65625 418.109375 91.386719 417.183594 91.386719 C 416.636719 91.386719 416.089844 91.484375 415.625 91.625 C 415.753906 91.976563 415.808594 92.371094 415.808594 93.507813 L 415.808594 96.414063 C 415.808594 97.269531 415.863281 97.453125 416.214844 97.648438 L 416.582031 97.84375 L 416.582031 98.140625 L 413.6875 98.140625 L 413.6875 97.84375 L 414.039063 97.648438 C 414.390625 97.453125 414.460938 97.269531 414.460938 96.414063 L 414.460938 93.871094 C 414.460938 92.75 414.433594 92.539063 414.335938 92.214844 C 414.152344 91.683594 413.617188 91.402344 412.773438 91.402344 C 412.257813 91.402344 411.722656 91.484375 411.300781 91.667969 L 411.300781 96.414063 C 411.300781 97.269531 411.371094 97.453125 411.722656 97.648438 L 412.074219 97.84375 L 412.074219 98.140625 L 409.179688 98.140625 L 409.179688 97.84375 L 409.546875 97.648438 C 409.898438 97.453125 409.953125 97.269531 409.953125 96.414063 L 409.953125 92.554688 C 409.953125 91.78125 409.882813 91.585938 409.535156 91.445313 L 409.179688 91.304688 L 409.179688 91.007813 L 411.257813 90.40625 L 411.257813 91.429688 C 411.949219 90.742188 412.691406 90.40625 413.578125 90.40625 C 414.488281 90.40625 415.132813 90.726563 415.5 91.386719 C 416.242188 90.742188 417.070313 90.390625 418.011719 90.390625 C 418.683594 90.390625 419.234375 90.574219 419.625 90.894531 C 419.890625 91.121094 420.089844 91.445313 420.1875 91.824219 C 420.285156 92.214844 420.3125 92.484375 420.3125 93.507813 L 420.3125 96.414063 C 420.3125 97.269531 420.371094 97.453125 420.722656 97.648438 L 421.074219 97.84375 L 421.074219 98.140625 Z M 418.195313 98.140625 "/>
<path style=" stroke:none;fill-rule:nonzero;fill:rgb(24.705505%,24.705505%,24.705505%);fill-opacity:1;" d="M 425.410156 91.402344 C 424.921875 91.402344 424.441406 91.5 424.050781 91.667969 L 424.050781 97.324219 C 424.414063 97.410156 424.792969 97.453125 425.160156 97.453125 C 426.816406 97.453125 427.628906 96.398438 427.628906 94.238281 C 427.628906 92.316406 426.914063 91.402344 425.410156 91.402344 M 425.621094 98.265625 C 425.046875 98.265625 424.597656 98.152344 424.050781 97.886719 L 422.6875 98.265625 L 422.6875 89.113281 C 422.6875 88.339844 422.617188 88.160156 422.265625 88.003906 L 421.929688 87.863281 L 421.929688 87.570313 L 424.050781 87.0625 L 424.050781 91.429688 C 424.738281 90.726563 425.453125 90.40625 426.296875 90.40625 C 428.035156 90.40625 429.0625 91.765625 429.0625 94.054688 C 429.0625 96.664063 427.757813 98.265625 425.621094 98.265625 "/>
<path style=" stroke:none;fill-rule:nonzero;fill:rgb(24.705505%,24.705505%,24.705505%);fill-opacity:1;" d="M 434.914063 93.144531 C 434.914063 91.851563 434.425781 91.21875 433.355469 91.21875 C 432.234375 91.21875 431.632813 92.003906 431.601563 93.480469 Z M 433.527344 98.265625 C 431.363281 98.265625 430.199219 96.960938 430.199219 94.53125 C 430.199219 91.949219 431.476563 90.40625 433.597656 90.40625 C 435.507813 90.40625 436.390625 91.5 436.390625 93.871094 L 436.390625 94.027344 L 431.589844 94.027344 L 431.589844 94.183594 C 431.589844 96.441406 432.347656 97.296875 434.339844 97.296875 C 434.957031 97.296875 435.574219 97.1875 436.152344 96.976563 L 436.152344 97.253906 C 435.449219 97.957031 434.636719 98.265625 433.527344 98.265625 "/>
<path style=" stroke:none;fill-rule:nonzero;fill:rgb(24.705505%,24.705505%,24.705505%);fill-opacity:1;" d="M 441.894531 91.933594 C 441.769531 91.933594 441.710938 91.921875 441.625 91.863281 L 441.277344 91.625 C 441.09375 91.5 440.882813 91.445313 440.6875 91.445313 C 440.40625 91.445313 440.082031 91.542969 439.789063 91.710938 L 439.789063 96.371094 C 439.789063 97.257813 439.859375 97.464844 440.25 97.636719 L 440.742188 97.84375 L 440.742188 98.140625 L 437.667969 98.140625 L 437.667969 97.84375 L 438.035156 97.648438 C 438.382813 97.453125 438.441406 97.269531 438.441406 96.414063 L 438.441406 92.554688 C 438.441406 91.78125 438.371094 91.585938 438.019531 91.445313 L 437.667969 91.304688 L 437.667969 91.007813 L 439.746094 90.40625 L 439.746094 91.472656 L 439.773438 91.445313 C 440.417969 90.796875 441.136719 90.40625 441.738281 90.40625 C 442.316406 90.40625 442.679688 90.699219 442.679688 91.164063 C 442.679688 91.613281 442.359375 91.933594 441.894531 91.933594 "/>
<path style=" stroke:none;fill-rule:nonzero;fill:rgb(24.705505%,24.705505%,24.705505%);fill-opacity:1;" d="M 445.402344 98.265625 C 444.8125 98.265625 444.253906 98.238281 443.5625 98.070313 L 443.507813 98.058594 L 443.507813 96.425781 L 443.789063 96.425781 L 444.085938 96.777344 C 444.5625 97.355469 444.953125 97.523438 445.640625 97.523438 C 446.554688 97.523438 447.074219 97.074219 447.074219 96.300781 C 447.074219 95.78125 446.847656 95.445313 446.230469 95.121094 L 445.066406 94.503906 C 444.027344 93.957031 443.632813 93.382813 443.632813 92.496094 C 443.632813 91.175781 444.601563 90.40625 446.257813 90.40625 C 446.777344 90.40625 447.675781 90.519531 448.015625 90.617188 L 448.015625 92.144531 L 447.734375 92.144531 L 447.410156 91.824219 C 447.242188 91.65625 446.738281 91.105469 446.035156 91.121094 C 445.292969 91.136719 444.839844 91.542969 444.839844 92.230469 C 444.839844 92.734375 445.082031 93.058594 445.683594 93.367188 L 446.921875 94 C 447.886719 94.492188 448.28125 95.078125 448.28125 95.976563 C 448.28125 97.453125 447.257813 98.265625 445.402344 98.265625 "/>
<path style=" stroke:none;fill-rule:nonzero;fill:rgb(24.705505%,24.705505%,24.705505%);fill-opacity:1;" d="M 454.136719 98.140625 L 454.136719 97.84375 L 454.488281 97.648438 C 454.835938 97.453125 454.90625 97.269531 454.90625 96.414063 L 454.90625 93.871094 C 454.90625 92.75 454.878906 92.539063 454.78125 92.214844 C 454.597656 91.683594 454.066406 91.402344 453.222656 91.402344 C 452.703125 91.402344 452.167969 91.515625 451.75 91.695313 L 451.75 96.414063 C 451.75 97.269531 451.820313 97.453125 452.167969 97.648438 L 452.523438 97.84375 L 452.523438 98.140625 L 449.628906 98.140625 L 449.628906 97.84375 L 449.992188 97.648438 C 450.34375 97.453125 450.402344 97.269531 450.402344 96.414063 L 450.402344 89.210938 C 450.402344 88.441406 450.332031 88.242188 449.980469 88.101563 L 449.628906 87.960938 L 449.628906 87.667969 L 451.75 87.0625 L 451.75 91.429688 C 452.421875 90.742188 453.179688 90.40625 454.035156 90.40625 C 454.640625 90.40625 455.328125 90.617188 455.707031 91.023438 C 456.101563 91.445313 456.253906 91.851563 456.253906 93.507813 L 456.253906 96.414063 C 456.253906 97.269531 456.3125 97.453125 456.660156 97.648438 L 457.027344 97.84375 L 457.027344 98.140625 Z M 454.136719 98.140625 "/>
<path style=" stroke:none;fill-rule:nonzero;fill:rgb(24.705505%,24.705505%,24.705505%);fill-opacity:1;" d="M 459.582031 88.859375 C 459.09375 88.859375 458.78125 88.566406 458.78125 88.074219 C 458.78125 87.570313 459.09375 87.273438 459.609375 87.273438 C 460.101563 87.273438 460.410156 87.570313 460.410156 88.0625 C 460.410156 88.566406 460.101563 88.859375 459.582031 88.859375 M 458.136719 98.140625 L 458.136719 97.84375 L 458.503906 97.648438 C 458.855469 97.453125 458.910156 97.269531 458.910156 96.414063 L 458.910156 92.554688 C 458.910156 91.78125 458.839844 91.585938 458.488281 91.445313 L 458.136719 91.304688 L 458.136719 91.007813 L 460.257813 90.40625 L 460.257813 96.414063 C 460.257813 97.269531 460.328125 97.453125 460.679688 97.648438 L 461.027344 97.84375 L 461.027344 98.140625 Z M 458.136719 98.140625 "/>
<path style=" stroke:none;fill-rule:nonzero;fill:rgb(24.705505%,24.705505%,24.705505%);fill-opacity:1;" d="M 465.800781 91.402344 C 465.3125 91.402344 464.832031 91.5 464.441406 91.667969 L 464.441406 97.324219 C 464.804688 97.410156 465.183594 97.453125 465.550781 97.453125 C 467.207031 97.453125 468.019531 96.398438 468.019531 94.238281 C 468.019531 92.316406 467.304688 91.402344 465.800781 91.402344 M 466.011719 98.265625 C 465.4375 98.265625 464.988281 98.152344 464.441406 97.886719 L 464.441406 99.335938 C 464.441406 100.21875 464.496094 100.429688 464.890625 100.597656 L 465.378906 100.808594 L 465.378906 101.101563 L 462.320313 101.101563 L 462.320313 100.808594 L 462.671875 100.609375 C 463.023438 100.414063 463.078125 100.230469 463.078125 99.359375 L 463.078125 92.554688 C 463.078125 91.78125 463.007813 91.585938 462.65625 91.445313 L 462.320313 91.304688 L 462.320313 91.007813 L 464.398438 90.40625 L 464.398438 91.429688 C 465.085938 90.714844 465.800781 90.40625 466.671875 90.40625 C 468.425781 90.40625 469.453125 91.753906 469.453125 94.054688 C 469.453125 96.664063 468.148438 98.265625 466.011719 98.265625 "/>
<path style=" stroke:none;fill-rule:nonzero;fill:rgb(24.705505%,24.705505%,24.705505%);fill-opacity:1;" d="M 472.753906 100.25 L 472.753906 100.058594 L 473.0625 99.921875 C 473.320313 99.8125 473.363281 99.683594 473.363281 99.101563 L 473.363281 94.820313 C 473.363281 94.667969 473.320313 94.609375 473.183594 94.609375 C 473.117188 94.609375 473.0625 94.621094 473.007813 94.628906 L 471.851563 94.839844 L 471.851563 94.566406 L 471.941406 94.527344 C 472.9375 94.128906 473.492188 93.84375 474.023438 93.488281 L 474.292969 93.488281 L 474.292969 99.101563 C 474.292969 99.683594 474.339844 99.8125 474.597656 99.921875 L 474.90625 100.058594 L 474.90625 100.25 Z M 472.753906 100.25 "/>
<path style=" stroke:none;fill-rule:evenodd;fill:rgb(49.804688%,49.804688%,49.804688%);fill-opacity:1;" d="M 359.941406 89.878906 L 372 93.898438 L 359.941406 97.921875 Z M 359.941406 89.878906 "/>
<path style=" stroke:none;fill-rule:evenodd;fill:rgb(49.804688%,49.804688%,49.804688%);fill-opacity:1;" d="M 200.550781 89.878906 L 212.609375 93.898438 L 200.550781 97.921875 Z M 200.550781 89.878906 "/>
<path style="fill-rule:evenodd;fill:rgb(93.359375%,91.796875%,94.921875%);fill-opacity:1;stroke-width:15;stroke-linecap:round;stroke-linejoin:round;stroke:rgb(49.414063%,39.208984%,61.914063%);stroke-opacity:1;stroke-miterlimit:10;" d="M 3720 1991.015625 L 4912.5 1991.015625 L 4912.5 2351.015625 L 3720 2351.015625 Z M 3720 1991.015625 " transform="matrix(0.1,0,0,-0.1,0,437)"/>
<path style=" stroke:none;fill-rule:nonzero;fill:rgb(24.705505%,24.705505%,24.705505%);fill-opacity:1;" d="M 397.949219 223.667969 C 398.300781 223.472656 398.355469 223.289063 398.355469 222.433594 L 398.355469 214.390625 C 398.285156 214.894531 398.246094 215.089844 398.074219 215.554688 L 394.929688 224.160156 L 393.976563 224.160156 L 390.832031 215.554688 C 390.664063 215.089844 390.621094 214.894531 390.550781 214.390625 L 390.550781 222.433594 C 390.550781 223.289063 390.621094 223.472656 390.972656 223.667969 L 391.324219 223.863281 L 391.324219 224.160156 L 388.765625 224.160156 L 388.765625 223.863281 L 389.132813 223.667969 C 389.484375 223.472656 389.539063 223.289063 389.539063 222.433594 L 389.539063 215.570313 C 389.539063 214.710938 389.484375 214.53125 389.132813 214.332031 L 388.765625 214.136719 L 388.765625 213.839844 L 391.660156 213.839844 L 394.46875 221.5625 C 394.59375 221.925781 394.636719 222.097656 394.707031 222.546875 C 394.75 222.109375 394.804688 221.925781 394.929688 221.578125 L 397.738281 213.839844 L 400.503906 213.839844 L 400.503906 214.136719 L 400.152344 214.332031 C 399.789063 214.53125 399.730469 214.710938 399.730469 215.570313 L 399.730469 222.433594 C 399.730469 223.289063 399.789063 223.472656 400.152344 223.667969 L 400.503906 223.863281 L 400.503906 224.160156 L 397.585938 224.160156 L 397.585938 223.863281 Z M 397.949219 223.667969 "/>
<path style=" stroke:none;fill-rule:nonzero;fill:rgb(24.705505%,24.705505%,24.705505%);fill-opacity:1;" d="M 406.515625 219.160156 C 406.515625 217.871094 406.023438 217.238281 404.953125 217.238281 C 403.832031 217.238281 403.230469 218.023438 403.199219 219.5 Z M 405.125 224.285156 C 402.960938 224.285156 401.796875 222.980469 401.796875 220.550781 C 401.796875 217.96875 403.074219 216.425781 405.195313 216.425781 C 407.105469 216.425781 407.988281 217.519531 407.988281 219.890625 L 407.988281 220.046875 L 403.1875 220.046875 L 403.1875 220.199219 C 403.1875 222.460938 403.945313 223.316406 405.9375 223.316406 C 406.554688 223.316406 407.171875 223.203125 407.75 222.996094 L 407.75 223.273438 C 407.046875 223.976563 406.234375 224.285156 405.125 224.285156 "/>
<path style=" stroke:none;fill-rule:nonzero;fill:rgb(24.705505%,24.705505%,24.705505%);fill-opacity:1;" d="M 418.195313 224.160156 L 418.195313 223.863281 L 418.546875 223.667969 C 418.894531 223.472656 418.953125 223.289063 418.953125 222.433594 L 418.953125 219.890625 C 418.953125 218.769531 418.9375 218.558594 418.828125 218.234375 C 418.644531 217.675781 418.109375 217.40625 417.183594 217.40625 C 416.636719 217.40625 416.089844 217.503906 415.625 217.644531 C 415.753906 217.996094 415.808594 218.390625 415.808594 219.527344 L 415.808594 222.433594 C 415.808594 223.289063 415.863281 223.472656 416.214844 223.667969 L 416.582031 223.863281 L 416.582031 224.160156 L 413.6875 224.160156 L 413.6875 223.863281 L 414.039063 223.667969 C 414.390625 223.472656 414.460938 223.289063 414.460938 222.433594 L 414.460938 219.890625 C 414.460938 218.769531 414.433594 218.558594 414.335938 218.234375 C 414.152344 217.703125 413.617188 217.421875 412.773438 217.421875 C 412.257813 217.421875 411.722656 217.503906 411.300781 217.6875 L 411.300781 222.433594 C 411.300781 223.289063 411.371094 223.472656 411.722656 223.667969 L 412.074219 223.863281 L 412.074219 224.160156 L 409.179688 224.160156 L 409.179688 223.863281 L 409.546875 223.667969 C 409.898438 223.472656 409.953125 223.289063 409.953125 222.433594 L 409.953125 218.574219 C 409.953125 217.800781 409.882813 217.605469 409.535156 217.464844 L 409.179688 217.324219 L 409.179688 217.027344 L 411.257813 216.425781 L 411.257813 217.449219 C 411.949219 216.761719 412.691406 216.425781 413.578125 216.425781 C 414.488281 216.425781 415.132813 216.746094 415.5 217.40625 C 416.242188 216.761719 417.070313 216.410156 418.011719 216.410156 C 418.683594 216.410156 419.234375 216.59375 419.625 216.914063 C 419.890625 217.140625 420.089844 217.464844 420.1875 217.84375 C 420.285156 218.234375 420.3125 218.503906 420.3125 219.527344 L 420.3125 222.433594 C 420.3125 223.289063 420.371094 223.472656 420.722656 223.667969 L 421.074219 223.863281 L 421.074219 224.160156 Z M 418.195313 224.160156 "/>
<path style=" stroke:none;fill-rule:nonzero;fill:rgb(24.705505%,24.705505%,24.705505%);fill-opacity:1;" d="M 425.410156 217.421875 C 424.921875 217.421875 424.441406 217.519531 424.050781 217.6875 L 424.050781 223.34375 C 424.414063 223.429688 424.792969 223.472656 425.160156 223.472656 C 426.816406 223.472656 427.628906 222.417969 427.628906 220.257813 C 427.628906 218.332031 426.914063 217.421875 425.410156 217.421875 M 425.621094 224.285156 C 425.046875 224.285156 424.597656 224.171875 424.050781 223.90625 L 422.6875 224.285156 L 422.6875 215.132813 C 422.6875 214.359375 422.617188 214.179688 422.265625 214.023438 L 421.929688 213.882813 L 421.929688 213.589844 L 424.050781 213.082031 L 424.050781 217.449219 C 424.738281 216.746094 425.453125 216.425781 426.296875 216.425781 C 428.035156 216.425781 429.0625 217.785156 429.0625 220.074219 C 429.0625 222.6875 427.757813 224.285156 425.621094 224.285156 "/>
<path style=" stroke:none;fill-rule:nonzero;fill:rgb(24.705505%,24.705505%,24.705505%);fill-opacity:1;" d="M 434.914063 219.160156 C 434.914063 217.871094 434.425781 217.238281 433.355469 217.238281 C 432.234375 217.238281 431.632813 218.023438 431.601563 219.5 Z M 433.527344 224.285156 C 431.363281 224.285156 430.199219 222.980469 430.199219 220.550781 C 430.199219 217.96875 431.476563 216.425781 433.597656 216.425781 C 435.507813 216.425781 436.390625 217.519531 436.390625 219.890625 L 436.390625 220.046875 L 431.589844 220.046875 L 431.589844 220.199219 C 431.589844 222.460938 432.347656 223.316406 434.339844 223.316406 C 434.957031 223.316406 435.574219 223.203125 436.152344 222.996094 L 436.152344 223.273438 C 435.449219 223.976563 434.636719 224.285156 433.527344 224.285156 "/>
<path style=" stroke:none;fill-rule:nonzero;fill:rgb(24.705505%,24.705505%,24.705505%);fill-opacity:1;" d="M 441.894531 217.953125 C 441.769531 217.953125 441.710938 217.941406 441.625 217.882813 L 441.277344 217.644531 C 441.09375 217.519531 440.882813 217.464844 440.6875 217.464844 C 440.40625 217.464844 440.082031 217.5625 439.789063 217.730469 L 439.789063 222.390625 C 439.789063 223.273438 439.859375 223.484375 440.25 223.652344 L 440.742188 223.863281 L 440.742188 224.160156 L 437.667969 224.160156 L 437.667969 223.863281 L 438.035156 223.667969 C 438.382813 223.472656 438.441406 223.289063 438.441406 222.433594 L 438.441406 218.574219 C 438.441406 217.800781 438.371094 217.605469 438.019531 217.464844 L 437.667969 217.324219 L 437.667969 217.027344 L 439.746094 216.425781 L 439.746094 217.492188 L 439.773438 217.464844 C 440.417969 216.816406 441.136719 216.425781 441.738281 216.425781 C 442.316406 216.425781 442.679688 216.71875 442.679688 217.183594 C 442.679688 217.632813 442.359375 217.953125 441.894531 217.953125 "/>
<path style=" stroke:none;fill-rule:nonzero;fill:rgb(24.705505%,24.705505%,24.705505%);fill-opacity:1;" d="M 445.402344 224.285156 C 444.8125 224.285156 444.253906 224.257813 443.5625 224.089844 L 443.507813 224.074219 L 443.507813 222.445313 L 443.789063 222.445313 L 444.085938 222.796875 C 444.5625 223.375 444.953125 223.542969 445.640625 223.542969 C 446.554688 223.542969 447.074219 223.09375 447.074219 222.320313 C 447.074219 221.800781 446.847656 221.464844 446.230469 221.140625 L 445.066406 220.523438 C 444.027344 219.976563 443.632813 219.402344 443.632813 218.515625 C 443.632813 217.195313 444.601563 216.425781 446.257813 216.425781 C 446.777344 216.425781 447.675781 216.535156 448.015625 216.636719 L 448.015625 218.164063 L 447.734375 218.164063 L 447.410156 217.84375 C 447.242188 217.675781 446.738281 217.125 446.035156 217.140625 C 445.292969 217.15625 444.839844 217.5625 444.839844 218.25 C 444.839844 218.753906 445.082031 219.078125 445.683594 219.386719 L 446.921875 220.019531 C 447.886719 220.507813 448.28125 221.097656 448.28125 221.996094 C 448.28125 223.472656 447.257813 224.285156 445.402344 224.285156 "/>
<path style=" stroke:none;fill-rule:nonzero;fill:rgb(24.705505%,24.705505%,24.705505%);fill-opacity:1;" d="M 454.136719 224.160156 L 454.136719 223.863281 L 454.488281 223.667969 C 454.835938 223.472656 454.90625 223.289063 454.90625 222.433594 L 454.90625 219.890625 C 454.90625 218.769531 454.878906 218.558594 454.78125 218.234375 C 454.597656 217.703125 454.066406 217.421875 453.222656 217.421875 C 452.703125 217.421875 452.167969 217.535156 451.75 217.714844 L 451.75 222.433594 C 451.75 223.289063 451.820313 223.472656 452.167969 223.667969 L 452.523438 223.863281 L 452.523438 224.160156 L 449.628906 224.160156 L 449.628906 223.863281 L 449.992188 223.667969 C 450.34375 223.472656 450.402344 223.289063 450.402344 222.433594 L 450.402344 215.230469 C 450.402344 214.460938 450.332031 214.261719 449.980469 214.121094 L 449.628906 213.980469 L 449.628906 213.6875 L 451.75 213.082031 L 451.75 217.449219 C 452.421875 216.761719 453.179688 216.425781 454.035156 216.425781 C 454.640625 216.425781 455.328125 216.636719 455.707031 217.042969 C 456.101563 217.464844 456.253906 217.871094 456.253906 219.527344 L 456.253906 222.433594 C 456.253906 223.289063 456.3125 223.472656 456.660156 223.667969 L 457.027344 223.863281 L 457.027344 224.160156 Z M 454.136719 224.160156 "/>
<path style=" stroke:none;fill-rule:nonzero;fill:rgb(24.705505%,24.705505%,24.705505%);fill-opacity:1;" d="M 459.582031 214.878906 C 459.09375 214.878906 458.78125 214.585938 458.78125 214.09375 C 458.78125 213.589844 459.09375 213.292969 459.609375 213.292969 C 460.101563 213.292969 460.410156 213.589844 460.410156 214.082031 C 460.410156 214.585938 460.101563 214.878906 459.582031 214.878906 M 458.136719 224.160156 L 458.136719 223.863281 L 458.503906 223.667969 C 458.855469 223.472656 458.910156 223.289063 458.910156 222.433594 L 458.910156 218.574219 C 458.910156 217.800781 458.839844 217.605469 458.488281 217.464844 L 458.136719 217.324219 L 458.136719 217.027344 L 460.257813 216.425781 L 460.257813 222.433594 C 460.257813 223.289063 460.328125 223.472656 460.679688 223.667969 L 461.027344 223.863281 L 461.027344 224.160156 Z M 458.136719 224.160156 "/>
<path style=" stroke:none;fill-rule:nonzero;fill:rgb(24.705505%,24.705505%,24.705505%);fill-opacity:1;" d="M 465.800781 217.421875 C 465.3125 217.421875 464.832031 217.519531 464.441406 217.6875 L 464.441406 223.34375 C 464.804688 223.429688 465.183594 223.472656 465.550781 223.472656 C 467.207031 223.472656 468.019531 222.417969 468.019531 220.257813 C 468.019531 218.332031 467.304688 217.421875 465.800781 217.421875 M 466.011719 224.285156 C 465.4375 224.285156 464.988281 224.171875 464.441406 223.90625 L 464.441406 225.351563 C 464.441406 226.238281 464.496094 226.449219 464.890625 226.617188 L 465.378906 226.828125 L 465.378906 227.121094 L 462.320313 227.121094 L 462.320313 226.828125 L 462.671875 226.628906 C 463.023438 226.433594 463.078125 226.25 463.078125 225.382813 L 463.078125 218.574219 C 463.078125 217.800781 463.007813 217.605469 462.65625 217.464844 L 462.320313 217.324219 L 462.320313 217.027344 L 464.398438 216.425781 L 464.398438 217.449219 C 465.085938 216.734375 465.800781 216.425781 466.671875 216.425781 C 468.425781 216.425781 469.453125 217.773438 469.453125 220.074219 C 469.453125 222.6875 468.148438 224.285156 466.011719 224.285156 "/>
<path style=" stroke:none;fill-rule:nonzero;fill:rgb(24.705505%,24.705505%,24.705505%);fill-opacity:1;" d="M 475.398438 226.269531 L 471.394531 226.269531 L 471.394531 225.757813 L 471.503906 225.625 C 472.445313 224.617188 473.320313 223.824219 473.773438 223.257813 C 474.285156 222.609375 474.496094 222.054688 474.496094 221.304688 C 474.496094 220.394531 474.128906 219.984375 473.308594 219.984375 C 472.898438 219.984375 472.652344 220.082031 472.5 220.292969 L 472.261719 220.621094 C 472.214844 220.6875 472.132813 220.730469 471.976563 220.730469 C 471.660156 220.730469 471.464844 220.566406 471.464844 220.292969 C 471.464844 219.828125 472.261719 219.480469 473.328125 219.480469 C 474.753906 219.480469 475.5 220.09375 475.5 221.25 C 475.5 222.128906 475.152344 222.839844 474.285156 223.714844 C 473.820313 224.179688 473.457031 224.535156 472.5625 225.332031 L 472.335938 225.53125 L 474.230469 225.53125 C 474.40625 225.53125 474.542969 225.53125 474.632813 225.511719 C 474.804688 225.496094 475.015625 225.394531 475.152344 225.257813 L 475.480469 224.929688 L 475.71875 224.929688 Z M 475.398438 226.269531 "/>
<path style=" stroke:none;fill-rule:evenodd;fill:rgb(49.804688%,49.804688%,49.804688%);fill-opacity:1;" d="M 359.941406 215.878906 L 372 219.898438 L 359.941406 223.921875 Z M 359.941406 215.878906 "/>
<path style="fill-rule:evenodd;fill:rgb(93.359375%,91.796875%,94.921875%);fill-opacity:1;stroke-width:15;stroke-linecap:round;stroke-linejoin:round;stroke:rgb(49.414063%,39.208984%,61.914063%);stroke-opacity:1;stroke-miterlimit:10;" d="M 3720 281.015625 L 4912.5 281.015625 L 4912.5 641.015625 L 3720 641.015625 Z M 3720 281.015625 " transform="matrix(0.1,0,0,-0.1,0,437)"/>
<path style=" stroke:none;fill-rule:nonzero;fill:rgb(24.705505%,24.705505%,24.705505%);fill-opacity:1;" d="M 397.96875 394.6875 C 398.324219 394.492188 398.378906 394.308594 398.378906 393.449219 L 398.378906 385.386719 C 398.308594 385.894531 398.265625 386.09375 398.097656 386.554688 L 394.945313 395.179688 L 393.988281 395.179688 L 390.835938 386.554688 C 390.667969 386.09375 390.625 385.894531 390.558594 385.386719 L 390.558594 393.449219 C 390.558594 394.308594 390.625 394.492188 390.980469 394.6875 L 391.328125 394.882813 L 391.328125 395.179688 L 388.769531 395.179688 L 388.769531 394.882813 L 389.132813 394.6875 C 389.488281 394.492188 389.542969 394.308594 389.542969 393.449219 L 389.542969 386.570313 C 389.542969 385.710938 389.488281 385.527344 389.132813 385.332031 L 388.769531 385.136719 L 388.769531 384.839844 L 391.667969 384.839844 L 394.480469 392.578125 C 394.609375 392.941406 394.652344 393.113281 394.71875 393.5625 C 394.761719 393.125 394.820313 392.941406 394.945313 392.589844 L 397.757813 384.839844 L 400.53125 384.839844 L 400.53125 385.136719 L 400.179688 385.332031 C 399.8125 385.527344 399.757813 385.710938 399.757813 386.570313 L 399.757813 393.449219 C 399.757813 394.308594 399.8125 394.492188 400.179688 394.6875 L 400.53125 394.882813 L 400.53125 395.179688 L 397.605469 395.179688 L 397.605469 394.882813 Z M 397.96875 394.6875 "/>
<path style=" stroke:none;fill-rule:nonzero;fill:rgb(24.705505%,24.705505%,24.705505%);fill-opacity:1;" d="M 406.507813 390.171875 C 406.507813 388.878906 406.015625 388.246094 404.945313 388.246094 C 403.816406 388.246094 403.214844 389.03125 403.1875 390.507813 Z M 405.113281 395.308594 C 402.945313 395.308594 401.777344 394 401.777344 391.566406 C 401.777344 388.976563 403.058594 387.429688 405.183594 387.429688 C 407.097656 387.429688 407.984375 388.527344 407.984375 390.902344 L 407.984375 391.058594 L 403.171875 391.058594 L 403.171875 391.210938 C 403.171875 393.476563 403.933594 394.335938 405.929688 394.335938 C 406.546875 394.335938 407.167969 394.222656 407.742188 394.011719 L 407.742188 394.292969 C 407.039063 394.996094 406.226563 395.308594 405.113281 395.308594 "/>
<path style=" stroke:none;fill-rule:nonzero;fill:rgb(24.705505%,24.705505%,24.705505%);fill-opacity:1;" d="M 418.222656 395.179688 L 418.222656 394.882813 L 418.574219 394.6875 C 418.925781 394.492188 418.984375 394.308594 418.984375 393.449219 L 418.984375 390.902344 C 418.984375 389.777344 418.96875 389.566406 418.855469 389.242188 C 418.671875 388.679688 418.136719 388.414063 417.207031 388.414063 C 416.660156 388.414063 416.113281 388.511719 415.648438 388.652344 C 415.773438 389.003906 415.832031 389.398438 415.832031 390.539063 L 415.832031 393.449219 C 415.832031 394.308594 415.886719 394.492188 416.238281 394.6875 L 416.605469 394.882813 L 416.605469 395.179688 L 413.707031 395.179688 L 413.707031 394.882813 L 414.058594 394.6875 C 414.410156 394.492188 414.480469 394.308594 414.480469 393.449219 L 414.480469 390.902344 C 414.480469 389.777344 414.453125 389.566406 414.355469 389.242188 C 414.171875 388.707031 413.636719 388.425781 412.792969 388.425781 C 412.273438 388.425781 411.738281 388.511719 411.316406 388.695313 L 411.316406 393.449219 C 411.316406 394.308594 411.382813 394.492188 411.738281 394.6875 L 412.089844 394.882813 L 412.089844 395.179688 L 409.191406 395.179688 L 409.191406 394.882813 L 409.554688 394.6875 C 409.910156 394.492188 409.964844 394.308594 409.964844 393.449219 L 409.964844 389.582031 C 409.964844 388.808594 409.894531 388.609375 409.542969 388.46875 L 409.191406 388.328125 L 409.191406 388.035156 L 411.273438 387.429688 L 411.273438 388.457031 C 411.960938 387.765625 412.707031 387.429688 413.59375 387.429688 C 414.507813 387.429688 415.15625 387.75 415.523438 388.414063 C 416.265625 387.765625 417.097656 387.414063 418.039063 387.414063 C 418.714844 387.414063 419.265625 387.597656 419.65625 387.921875 C 419.925781 388.144531 420.121094 388.46875 420.21875 388.847656 C 420.320313 389.242188 420.347656 389.511719 420.347656 390.539063 L 420.347656 393.449219 C 420.347656 394.308594 420.402344 394.492188 420.753906 394.6875 L 421.105469 394.882813 L 421.105469 395.179688 Z M 418.222656 395.179688 "/>
<path style=" stroke:none;fill-rule:nonzero;fill:rgb(24.705505%,24.705505%,24.705505%);fill-opacity:1;" d="M 425.433594 388.425781 C 424.941406 388.425781 424.464844 388.527344 424.070313 388.695313 L 424.070313 394.363281 C 424.4375 394.449219 424.816406 394.492188 425.179688 394.492188 C 426.839844 394.492188 427.65625 393.4375 427.65625 391.269531 C 427.65625 389.339844 426.941406 388.425781 425.433594 388.425781 M 425.644531 395.308594 C 425.070313 395.308594 424.621094 395.195313 424.070313 394.925781 L 422.707031 395.308594 L 422.707031 386.132813 C 422.707031 385.359375 422.632813 385.175781 422.285156 385.023438 L 421.945313 384.882813 L 421.945313 384.585938 L 424.070313 384.078125 L 424.070313 388.457031 C 424.757813 387.75 425.476563 387.429688 426.320313 387.429688 C 428.066406 387.429688 429.09375 388.792969 429.09375 391.085938 C 429.09375 393.703125 427.785156 395.308594 425.644531 395.308594 "/>
<path style=" stroke:none;fill-rule:nonzero;fill:rgb(24.705505%,24.705505%,24.705505%);fill-opacity:1;" d="M 434.957031 390.171875 C 434.957031 388.878906 434.464844 388.246094 433.394531 388.246094 C 432.269531 388.246094 431.664063 389.03125 431.636719 390.507813 Z M 433.5625 395.308594 C 431.394531 395.308594 430.226563 394 430.226563 391.566406 C 430.226563 388.976563 431.507813 387.429688 433.632813 387.429688 C 435.546875 387.429688 436.433594 388.527344 436.433594 390.902344 L 436.433594 391.058594 L 431.621094 391.058594 L 431.621094 391.210938 C 431.621094 393.476563 432.382813 394.335938 434.378906 394.335938 C 435 394.335938 435.617188 394.222656 436.195313 394.011719 L 436.195313 394.292969 C 435.488281 394.996094 434.675781 395.308594 433.5625 395.308594 "/>
<path style=" stroke:none;fill-rule:nonzero;fill:rgb(24.705505%,24.705505%,24.705505%);fill-opacity:1;" d="M 441.902344 388.960938 C 441.777344 388.960938 441.71875 388.949219 441.636719 388.890625 L 441.285156 388.652344 C 441.101563 388.527344 440.890625 388.46875 440.691406 388.46875 C 440.414063 388.46875 440.089844 388.566406 439.792969 388.738281 L 439.792969 393.40625 C 439.792969 394.292969 439.863281 394.503906 440.257813 394.671875 L 440.75 394.882813 L 440.75 395.179688 L 437.667969 395.179688 L 437.667969 394.882813 L 438.035156 394.6875 C 438.386719 394.492188 438.441406 394.308594 438.441406 393.449219 L 438.441406 389.582031 C 438.441406 388.808594 438.371094 388.609375 438.019531 388.46875 L 437.667969 388.328125 L 437.667969 388.035156 L 439.75 387.429688 L 439.75 388.496094 L 439.777344 388.46875 C 440.425781 387.824219 441.144531 387.429688 441.75 387.429688 C 442.324219 387.429688 442.691406 387.722656 442.691406 388.1875 C 442.691406 388.636719 442.367188 388.960938 441.902344 388.960938 "/>
<path style=" stroke:none;fill-rule:nonzero;fill:rgb(24.705505%,24.705505%,24.705505%);fill-opacity:1;" d="M 445.417969 395.308594 C 444.828125 395.308594 444.265625 395.277344 443.574219 395.109375 L 443.519531 395.097656 L 443.519531 393.464844 L 443.800781 393.464844 L 444.097656 393.816406 C 444.574219 394.390625 444.96875 394.5625 445.65625 394.5625 C 446.570313 394.5625 447.09375 394.109375 447.09375 393.335938 C 447.09375 392.816406 446.867188 392.480469 446.246094 392.15625 L 445.078125 391.535156 C 444.039063 390.988281 443.644531 390.410156 443.644531 389.523438 C 443.644531 388.203125 444.617188 387.429688 446.277344 387.429688 C 446.796875 387.429688 447.695313 387.539063 448.035156 387.640625 L 448.035156 389.171875 L 447.753906 389.171875 L 447.429688 388.847656 C 447.261719 388.679688 446.753906 388.132813 446.050781 388.144531 C 445.304688 388.160156 444.855469 388.566406 444.855469 389.257813 C 444.855469 389.765625 445.09375 390.085938 445.699219 390.398438 L 446.9375 391.03125 C 447.90625 391.523438 448.300781 392.113281 448.300781 393.011719 C 448.300781 394.492188 447.273438 395.308594 445.417969 395.308594 "/>
<path style=" stroke:none;fill-rule:nonzero;fill:rgb(24.705505%,24.705505%,24.705505%);fill-opacity:1;" d="M 454.222656 395.179688 L 454.222656 394.882813 L 454.574219 394.6875 C 454.925781 394.492188 454.996094 394.308594 454.996094 393.449219 L 454.996094 390.902344 C 454.996094 389.777344 454.96875 389.566406 454.871094 389.242188 C 454.6875 388.707031 454.152344 388.425781 453.308594 388.425781 C 452.789063 388.425781 452.253906 388.539063 451.832031 388.722656 L 451.832031 393.449219 C 451.832031 394.308594 451.902344 394.492188 452.253906 394.6875 L 452.605469 394.882813 L 452.605469 395.179688 L 449.707031 395.179688 L 449.707031 394.882813 L 450.074219 394.6875 C 450.425781 394.492188 450.480469 394.308594 450.480469 393.449219 L 450.480469 386.234375 C 450.480469 385.457031 450.410156 385.261719 450.058594 385.121094 L 449.707031 384.980469 L 449.707031 384.683594 L 451.832031 384.078125 L 451.832031 388.457031 C 452.507813 387.765625 453.265625 387.429688 454.125 387.429688 C 454.730469 387.429688 455.417969 387.640625 455.796875 388.046875 C 456.191406 388.46875 456.347656 388.878906 456.347656 390.539063 L 456.347656 393.449219 C 456.347656 394.308594 456.402344 394.492188 456.753906 394.6875 L 457.121094 394.882813 L 457.121094 395.179688 Z M 454.222656 395.179688 "/>
<path style=" stroke:none;fill-rule:nonzero;fill:rgb(24.705505%,24.705505%,24.705505%);fill-opacity:1;" d="M 459.679688 385.878906 C 459.1875 385.878906 458.875 385.585938 458.875 385.09375 C 458.875 384.585938 459.1875 384.292969 459.707031 384.292969 C 460.199219 384.292969 460.507813 384.585938 460.507813 385.078125 C 460.507813 385.585938 460.199219 385.878906 459.679688 385.878906 M 458.230469 395.179688 L 458.230469 394.882813 L 458.59375 394.6875 C 458.949219 394.492188 459.003906 394.308594 459.003906 393.449219 L 459.003906 389.582031 C 459.003906 388.808594 458.933594 388.609375 458.582031 388.46875 L 458.230469 388.328125 L 458.230469 388.035156 L 460.355469 387.429688 L 460.355469 393.449219 C 460.355469 394.308594 460.421875 394.492188 460.777344 394.6875 L 461.128906 394.882813 L 461.128906 395.179688 Z M 458.230469 395.179688 "/>
<path style=" stroke:none;fill-rule:nonzero;fill:rgb(24.705505%,24.705505%,24.705505%);fill-opacity:1;" d="M 465.867188 388.425781 C 465.375 388.425781 464.894531 388.527344 464.503906 388.695313 L 464.503906 394.363281 C 464.867188 394.449219 465.25 394.492188 465.613281 394.492188 C 467.273438 394.492188 468.089844 393.4375 468.089844 391.269531 C 468.089844 389.339844 467.371094 388.425781 465.867188 388.425781 M 466.078125 395.308594 C 465.5 395.308594 465.050781 395.195313 464.503906 394.925781 L 464.503906 396.375 C 464.503906 397.261719 464.558594 397.472656 464.953125 397.640625 L 465.445313 397.851563 L 465.445313 398.148438 L 462.378906 398.148438 L 462.378906 397.851563 L 462.730469 397.65625 C 463.082031 397.460938 463.136719 397.277344 463.136719 396.402344 L 463.136719 389.582031 C 463.136719 388.808594 463.066406 388.609375 462.714844 388.46875 L 462.378906 388.328125 L 462.378906 388.035156 L 464.460938 387.429688 L 464.460938 388.457031 C 465.148438 387.738281 465.867188 387.429688 466.738281 387.429688 C 468.5 387.429688 469.523438 388.777344 469.523438 391.085938 C 469.523438 393.703125 468.21875 395.308594 466.078125 395.308594 "/>
<path style=" stroke:none;fill-rule:nonzero;fill:rgb(24.705505%,24.705505%,24.705505%);fill-opacity:1;" d="M 473.585938 392.921875 C 473.265625 392.921875 472.953125 392.984375 472.699219 393.09375 L 472.699219 396.773438 C 472.9375 396.824219 473.183594 396.851563 473.417969 396.851563 C 474.496094 396.851563 475.023438 396.167969 475.023438 394.761719 C 475.023438 393.511719 474.558594 392.921875 473.585938 392.921875 M 473.722656 397.382813 C 473.347656 397.382813 473.054688 397.308594 472.699219 397.136719 L 471.8125 397.382813 L 471.8125 391.433594 C 471.8125 390.929688 471.769531 390.8125 471.539063 390.710938 L 471.320313 390.621094 L 471.320313 390.429688 L 472.699219 390.101563 L 472.699219 392.941406 C 473.144531 392.484375 473.609375 392.273438 474.15625 392.273438 C 475.289063 392.273438 475.957031 393.15625 475.957031 394.644531 C 475.957031 396.34375 475.105469 397.382813 473.722656 397.382813 "/>
<path style=" stroke:none;fill-rule:evenodd;fill:rgb(49.804688%,49.804688%,49.804688%);fill-opacity:1;" d="M 359.941406 386.878906 L 372 390.898438 L 359.941406 394.921875 Z M 359.941406 386.878906 "/>
<path style=" stroke:none;fill-rule:evenodd;fill:rgb(49.804688%,49.804688%,49.804688%);fill-opacity:1;" d="M 200.550781 386.878906 L 212.609375 390.898438 L 200.550781 394.921875 Z M 200.550781 386.878906 "/>
<path style=" stroke:none;fill-rule:evenodd;fill:rgb(49.804688%,49.804688%,49.804688%);fill-opacity:1;" d="M 200.550781 215.878906 L 212.609375 219.898438 L 200.550781 223.921875 Z M 200.550781 215.878906 "/>
<path style="fill-rule:evenodd;fill:rgb(88.671875%,94.53125%,96.09375%);fill-opacity:1;stroke-width:15;stroke-linecap:round;stroke-linejoin:round;stroke:rgb(19.213867%,52.146912%,60.742188%);stroke-opacity:1;stroke-miterlimit:10;" d="M 6262.5 1631.015625 L 7342.5 1631.015625 L 7342.5 2711.015625 L 6262.5 2711.015625 Z M 6262.5 1631.015625 " transform="matrix(0.1,0,0,-0.1,0,437)"/>
<path style=" stroke:none;fill-rule:nonzero;fill:rgb(24.705505%,24.705505%,24.705505%);fill-opacity:1;" d="M 662.785156 211.34375 L 660.40625 218.710938 L 665.0625 218.710938 Z M 666.167969 227.160156 L 666.167969 226.65625 L 666.722656 226.246094 C 666.9375 226.078125 667.082031 225.839844 667.082031 225.574219 C 667.082031 225.335938 667.03125 225.046875 666.914063 224.6875 L 665.496094 220.152344 L 659.929688 220.152344 L 658.464844 224.6875 C 658.34375 225.046875 658.296875 225.335938 658.296875 225.574219 C 658.296875 225.839844 658.417969 226.078125 658.632813 226.246094 L 659.207031 226.65625 L 659.207031 227.160156 L 655.03125 227.160156 L 655.03125 226.65625 L 655.511719 226.246094 C 655.824219 225.984375 656.113281 225.457031 656.496094 224.375 L 661.65625 209.78125 L 664.371094 209.085938 L 669.265625 224.160156 C 669.671875 225.429688 669.9375 225.960938 670.296875 226.246094 L 670.800781 226.65625 L 670.800781 227.160156 Z M 666.167969 227.160156 "/>
<path style=" stroke:none;fill-rule:nonzero;fill:rgb(24.705505%,24.705505%,24.705505%);fill-opacity:1;" d="M 673.105469 217.046875 C 671.96875 215.566406 671.457031 213.554688 671.457031 210.652344 C 671.457031 207.738281 671.96875 205.742188 673.105469 204.242188 C 673.558594 203.667969 674.121094 203.152344 674.667969 202.855469 L 675.199219 203.542969 C 674.699219 203.882813 674.230469 204.320313 673.855469 204.820313 C 673.453125 205.398438 673.125 206.097656 672.90625 206.878906 C 672.578125 208.003906 672.46875 209.03125 672.46875 210.652344 C 672.46875 212.277344 672.59375 213.351563 672.90625 214.425781 C 673.355469 215.921875 674.136719 217.046875 675.199219 217.765625 L 674.667969 218.449219 C 674.121094 218.152344 673.558594 217.640625 673.105469 217.046875 "/>
<path style=" stroke:none;fill-rule:nonzero;fill:rgb(24.705505%,24.705505%,24.705505%);fill-opacity:1;" d="M 679.566406 212.757813 C 679.566406 213.945313 679.890625 214.285156 681 214.285156 C 681.390625 214.285156 681.78125 214.238281 682.15625 214.128906 L 682.15625 214.410156 C 681.59375 214.988281 680.859375 215.300781 680.003906 215.300781 C 679.300781 215.300781 678.738281 215.082031 678.425781 214.675781 C 678.144531 214.316406 678.050781 213.894531 678.050781 213.007813 L 678.050781 207.597656 L 677.101563 207.597656 L 677.101563 207.144531 C 677.648438 206.863281 678.003906 206.597656 678.253906 206.195313 C 678.457031 205.867188 678.628906 205.398438 678.769531 204.804688 L 679.566406 204.804688 L 679.566406 206.722656 L 682.15625 206.722656 L 682.15625 207.597656 L 679.566406 207.597656 Z M 679.566406 212.757813 "/>
<path style=" stroke:none;fill-rule:nonzero;fill:rgb(24.705505%,24.705505%,24.705505%);fill-opacity:1;" d="M 687.285156 210.03125 L 687.285156 213.273438 L 686.148438 213.273438 L 686.148438 210.03125 L 683.09375 210.03125 L 683.09375 208.859375 L 686.148438 208.859375 L 686.148438 205.632813 L 687.285156 205.632813 L 687.285156 208.859375 L 690.375 208.859375 L 690.375 210.03125 Z M 687.285156 210.03125 "/>
<path style=" stroke:none;fill-rule:nonzero;fill:rgb(24.705505%,24.705505%,24.705505%);fill-opacity:1;" d="M 693.949219 215.160156 L 693.949219 214.832031 L 694.476563 214.597656 C 694.914063 214.410156 694.992188 214.191406 694.992188 213.195313 L 694.992188 205.878906 C 694.992188 205.617188 694.914063 205.523438 694.679688 205.523438 C 694.570313 205.523438 694.476563 205.539063 694.386719 205.554688 L 692.402344 205.910156 L 692.402344 205.445313 L 692.558594 205.382813 C 694.261719 204.695313 695.210938 204.210938 696.117188 203.605469 L 696.585938 203.605469 L 696.585938 213.195313 C 696.585938 214.191406 696.664063 214.410156 697.097656 214.597656 L 697.628906 214.832031 L 697.628906 215.160156 Z M 693.949219 215.160156 "/>
<path style=" stroke:none;fill-rule:nonzero;fill:rgb(24.705505%,24.705505%,24.705505%);fill-opacity:1;" d="M 703.402344 217.046875 C 702.949219 217.640625 702.371094 218.152344 701.839844 218.449219 L 701.3125 217.765625 C 701.875 217.375 702.277344 216.984375 702.636719 216.484375 C 703.058594 215.910156 703.371094 215.207031 703.589844 214.425781 C 703.917969 213.304688 704.042969 212.277344 704.042969 210.652344 C 704.042969 209.015625 703.898438 207.957031 703.589844 206.878906 C 703.136719 205.367188 702.371094 204.257813 701.3125 203.542969 L 701.839844 202.855469 C 702.371094 203.152344 702.949219 203.667969 703.402344 204.242188 C 704.539063 205.742188 705.054688 207.738281 705.054688 210.652344 C 705.054688 213.554688 704.539063 215.566406 703.402344 217.046875 "/>
<path style=" stroke:none;fill-rule:evenodd;fill:rgb(92.1875%,94.53125%,87.5%);fill-opacity:1;" d="M 536.25 219.898438 C 536.25 207.46875 546.320313 197.398438 558.75 197.398438 C 571.179688 197.398438 581.25 207.46875 581.25 219.898438 C 581.25 232.328125 571.179688 242.398438 558.75 242.398438 C 546.320313 242.398438 536.25 232.328125 536.25 219.898438 "/>
<path style="fill:none;stroke-width:15;stroke-linecap:round;stroke-linejoin:round;stroke:rgb(47.068787%,58.006287%,25.097656%);stroke-opacity:1;stroke-miterlimit:10;" d="M 5362.5 2171.015625 C 5362.5 2295.3125 5463.203125 2396.015625 5587.5 2396.015625 C 5711.796875 2396.015625 5812.5 2295.3125 5812.5 2171.015625 C 5812.5 2046.71875 5711.796875 1946.015625 5587.5 1946.015625 C 5463.203125 1946.015625 5362.5 2046.71875 5362.5 2171.015625 Z M 5362.5 2171.015625 " transform="matrix(0.1,0,0,-0.1,0,437)"/>
<path style=" stroke:none;fill-rule:nonzero;fill:rgb(24.705505%,24.705505%,24.705505%);fill-opacity:1;" d="M 559.96875 222.089844 L 559.96875 228.328125 L 557.78125 228.328125 L 557.78125 222.089844 L 551.902344 222.089844 L 551.902344 219.839844 L 557.78125 219.839844 L 557.78125 213.628906 L 559.96875 213.628906 L 559.96875 219.839844 L 565.910156 219.839844 L 565.910156 222.089844 Z M 559.96875 222.089844 "/>
<path style=" stroke:none;fill-rule:evenodd;fill:rgb(49.804688%,49.804688%,49.804688%);fill-opacity:1;" d="M 562.769531 185.339844 L 558.75 197.398438 L 554.730469 185.339844 Z M 562.769531 185.339844 "/>
<path style=" stroke:none;fill-rule:evenodd;fill:rgb(49.804688%,49.804688%,49.804688%);fill-opacity:1;" d="M 524.191406 215.878906 L 536.25 219.898438 L 524.191406 223.921875 Z M 524.191406 215.878906 "/>
<path style=" stroke:none;fill-rule:evenodd;fill:rgb(49.804688%,49.804688%,49.804688%);fill-opacity:1;" d="M 554.730469 254.460938 L 558.75 242.398438 L 562.769531 254.460938 Z M 554.730469 254.460938 "/>
<path style=" stroke:none;fill-rule:evenodd;fill:rgb(49.804688%,49.804688%,49.804688%);fill-opacity:1;" d="M 614.191406 215.878906 L 626.25 219.898438 L 614.191406 223.921875 Z M 614.191406 215.878906 "/>
<path style="fill:none;stroke-width:7.5;stroke-linecap:round;stroke-linejoin:round;stroke:rgb(49.804688%,49.804688%,49.804688%);stroke-opacity:1;stroke-miterlimit:10;" d="M 3024.296875 3431.015625 L 3609.414063 3431.015625 " transform="matrix(0.1,0,0,-0.1,0,437)"/>
<path style="fill:none;stroke-width:7.5;stroke-linecap:round;stroke-linejoin:round;stroke:rgb(49.804688%,49.804688%,49.804688%);stroke-opacity:1;stroke-miterlimit:10;" d="M 1087.5 2171.015625 L 1537.5 2171.015625 L 1537.5 3431.015625 L 2015.585938 3431.015625 " transform="matrix(0.1,0,0,-0.1,0,437)"/>
<path style="fill:none;stroke-width:7.5;stroke-linecap:round;stroke-linejoin:round;stroke:rgb(49.804688%,49.804688%,49.804688%);stroke-opacity:1;stroke-miterlimit:10;" d="M 3024.296875 2171.015625 L 3609.414063 2171.015625 " transform="matrix(0.1,0,0,-0.1,0,437)"/>
<path style="fill:none;stroke-width:7.5;stroke-linecap:round;stroke-linejoin:round;stroke:rgb(49.804688%,49.804688%,49.804688%);stroke-opacity:1;stroke-miterlimit:10;" d="M 3024.296875 461.015625 L 3609.414063 461.015625 " transform="matrix(0.1,0,0,-0.1,0,437)"/>
<path style="fill:none;stroke-width:7.5;stroke-linecap:round;stroke-linejoin:round;stroke:rgb(49.804688%,49.804688%,49.804688%);stroke-opacity:1;stroke-miterlimit:10;" d="M 2015.585938 461.015625 L 1537.5 461.015625 L 1537.5 2171.015625 L 1087.5 2171.015625 " transform="matrix(0.1,0,0,-0.1,0,437)"/>
<path style="fill:none;stroke-width:7.5;stroke-linecap:round;stroke-linejoin:round;stroke:rgb(49.804688%,49.804688%,49.804688%);stroke-opacity:1;stroke-miterlimit:10;" d="M 2015.585938 2171.015625 L 1087.5 2171.015625 " transform="matrix(0.1,0,0,-0.1,0,437)"/>
<path style="fill:none;stroke-width:7.5;stroke-linecap:round;stroke-linejoin:round;stroke:rgb(49.804688%,49.804688%,49.804688%);stroke-opacity:1;stroke-miterlimit:10;" d="M 4912.5 3431.015625 L 5587.5 3431.015625 L 5587.5 2506.601563 " transform="matrix(0.1,0,0,-0.1,0,437)"/>
<path style="fill:none;stroke-width:7.5;stroke-linecap:round;stroke-linejoin:round;stroke:rgb(49.804688%,49.804688%,49.804688%);stroke-opacity:1;stroke-miterlimit:10;" d="M 4912.5 2171.015625 L 5251.914063 2171.015625 " transform="matrix(0.1,0,0,-0.1,0,437)"/>
<path style="fill:none;stroke-width:7.5;stroke-linecap:round;stroke-linejoin:round;stroke:rgb(49.804688%,49.804688%,49.804688%);stroke-opacity:1;stroke-miterlimit:10;" d="M 4912.5 461.015625 L 5587.5 461.015625 L 5587.5 1835.507813 " transform="matrix(0.1,0,0,-0.1,0,437)"/>
<path style="fill:none;stroke-width:7.5;stroke-linecap:round;stroke-linejoin:round;stroke:rgb(49.804688%,49.804688%,49.804688%);stroke-opacity:1;stroke-miterlimit:10;" d="M 5812.5 2171.015625 L 6151.914063 2171.015625 " transform="matrix(0.1,0,0,-0.1,0,437)"/>
<path style="fill:none;stroke-width:7.5;stroke-linecap:round;stroke-linejoin:round;stroke:rgb(49.804688%,49.804688%,49.804688%);stroke-opacity:1;stroke-miterlimit:10;" d="M 6802.5 2711.015625 L 6802.5 4286.015625 L 547.5 4286.015625 L 547.5 2821.601563 " transform="matrix(0.1,0,0,-0.1,0,437)"/>
<path style=" stroke:none;fill-rule:evenodd;fill:rgb(49.804688%,49.804688%,49.804688%);fill-opacity:1;" d="M 58.769531 153.839844 L 54.75 165.898438 L 50.730469 153.839844 Z M 58.769531 153.839844 "/>
<path style=" stroke:none;fill-rule:evenodd;fill:rgb(100%,100%,100%);fill-opacity:1;" d="M 314.878906 16.800781 L 420.121094 16.800781 L 420.121094 0 L 314.878906 0 Z M 314.878906 16.800781 "/>
<path style=" stroke:none;fill-rule:nonzero;fill:rgb(24.705505%,24.705505%,24.705505%);fill-opacity:1;" d="M 320.644531 12.042969 C 320.011719 12.535156 319.199219 12.746094 317.933594 12.746094 C 317.121094 12.746094 316.125 12.59375 315.589844 12.453125 L 315.589844 10.554688 L 315.871094 10.554688 L 316.433594 11.203125 C 316.542969 11.328125 316.6875 11.457031 316.824219 11.554688 C 317.234375 11.847656 317.527344 11.933594 318.171875 11.933594 C 319.507813 11.933594 320.265625 11.273438 320.265625 10.09375 C 320.265625 9.882813 320.238281 9.671875 320.167969 9.460938 C 320.027344 8.984375 319.730469 8.703125 318.902344 8.226563 L 317.527344 7.425781 C 317.164063 7.214844 316.839844 6.992188 316.574219 6.765625 C 316.039063 6.304688 315.746094 5.644531 315.746094 4.859375 C 315.746094 3.144531 316.9375 2.175781 319.058594 2.175781 C 319.773438 2.175781 320.585938 2.316406 321.289063 2.457031 L 321.359375 2.46875 L 321.359375 4.238281 L 321.078125 4.238281 L 320.53125 3.707031 C 319.925781 3.128906 319.632813 2.988281 318.859375 2.988281 C 317.722656 2.988281 317.089844 3.539063 317.089844 4.519531 C 317.089844 4.785156 317.132813 5.039063 317.21875 5.222656 C 317.414063 5.65625 317.695313 5.898438 318.679688 6.472656 L 319.6875 7.0625 C 320.222656 7.371094 320.617188 7.664063 320.925781 7.972656 C 321.457031 8.507813 321.65625 9.097656 321.65625 9.855469 C 321.65625 10.78125 321.316406 11.523438 320.644531 12.042969 "/>
<path style=" stroke:none;fill-rule:nonzero;fill:rgb(24.705505%,24.705505%,24.705505%);fill-opacity:1;" d="M 327.578125 7.621094 C 327.578125 6.332031 327.089844 5.699219 326.019531 5.699219 C 324.898438 5.699219 324.292969 6.484375 324.265625 7.960938 Z M 326.1875 12.746094 C 324.027344 12.746094 322.863281 11.441406 322.863281 9.011719 C 322.863281 6.429688 324.140625 4.886719 326.261719 4.886719 C 328.167969 4.886719 329.054688 5.980469 329.054688 8.351563 L 329.054688 8.507813 L 324.253906 8.507813 L 324.253906 8.660156 C 324.253906 10.921875 325.011719 11.777344 327.003906 11.777344 C 327.621094 11.777344 328.238281 11.664063 328.8125 11.457031 L 328.8125 11.734375 C 328.113281 12.4375 327.296875 12.746094 326.1875 12.746094 "/>
<path style=" stroke:none;fill-rule:nonzero;fill:rgb(24.705505%,24.705505%,24.705505%);fill-opacity:1;" d="M 330.375 12.621094 L 330.375 12.324219 L 330.738281 12.128906 C 331.089844 11.933594 331.144531 11.75 331.144531 10.894531 L 331.144531 3.691406 C 331.144531 2.921875 331.074219 2.722656 330.722656 2.582031 L 330.375 2.441406 L 330.375 2.148438 L 332.492188 1.542969 L 332.492188 10.894531 C 332.492188 11.75 332.5625 11.933594 332.914063 12.128906 L 333.265625 12.324219 L 333.265625 12.621094 Z M 330.375 12.621094 "/>
<path style=" stroke:none;fill-rule:nonzero;fill:rgb(24.705505%,24.705505%,24.705505%);fill-opacity:1;" d="M 338.796875 3.058594 C 338.601563 3.058594 338.5 3.03125 338.433594 2.921875 L 338.152344 2.511719 C 338.023438 2.332031 337.882813 2.261719 337.675781 2.261719 C 337.433594 2.261719 337.226563 2.332031 337.097656 2.441406 C 336.746094 2.738281 336.691406 2.988281 336.691406 4.351563 L 336.691406 5.023438 L 338.289063 5.023438 L 338.289063 5.8125 L 336.691406 5.8125 L 336.691406 10.851563 C 336.691406 11.734375 336.761719 11.945313 337.152344 12.113281 L 337.644531 12.324219 L 337.644531 12.621094 L 334.570313 12.621094 L 334.570313 12.324219 L 334.9375 12.128906 C 335.285156 11.933594 335.34375 11.75 335.34375 10.894531 L 335.34375 5.8125 L 334.570313 5.8125 L 334.570313 5.023438 L 335.34375 5.023438 L 335.34375 4.828125 C 335.34375 3.734375 335.414063 3.257813 335.679688 2.765625 C 336.113281 1.964844 337.015625 1.542969 338.25 1.542969 C 339.148438 1.542969 339.625 1.8125 339.625 2.332031 C 339.625 2.75 339.273438 3.058594 338.796875 3.058594 "/>
<path style=" stroke:none;fill-rule:nonzero;fill:rgb(24.705505%,24.705505%,24.705505%);fill-opacity:1;" d="M 339.179688 9.363281 L 343.628906 9.363281 L 343.628906 8.3125 L 339.179688 8.3125 Z M 339.179688 9.363281 "/>
<path style=" stroke:none;fill-rule:nonzero;fill:rgb(24.705505%,24.705505%,24.705505%);fill-opacity:1;" d="M 349.972656 12.042969 C 349.34375 12.535156 348.527344 12.746094 347.265625 12.746094 C 346.449219 12.746094 345.453125 12.59375 344.917969 12.453125 L 344.917969 10.554688 L 345.199219 10.554688 L 345.761719 11.203125 C 345.875 11.328125 346.015625 11.457031 346.15625 11.554688 C 346.5625 11.847656 346.855469 11.933594 347.503906 11.933594 C 348.835938 11.933594 349.59375 11.273438 349.59375 10.09375 C 349.59375 9.882813 349.566406 9.671875 349.496094 9.460938 C 349.355469 8.984375 349.058594 8.703125 348.230469 8.226563 L 346.855469 7.425781 C 346.492188 7.214844 346.167969 6.992188 345.902344 6.765625 C 345.367188 6.304688 345.074219 5.644531 345.074219 4.859375 C 345.074219 3.144531 346.265625 2.175781 348.386719 2.175781 C 349.101563 2.175781 349.917969 2.316406 350.617188 2.457031 L 350.6875 2.46875 L 350.6875 4.238281 L 350.40625 4.238281 L 349.859375 3.707031 C 349.257813 3.128906 348.960938 2.988281 348.191406 2.988281 C 347.054688 2.988281 346.421875 3.539063 346.421875 4.519531 C 346.421875 4.785156 346.464844 5.039063 346.546875 5.222656 C 346.742188 5.65625 347.023438 5.898438 348.007813 6.472656 L 349.019531 7.0625 C 349.550781 7.371094 349.945313 7.664063 350.253906 7.972656 C 350.785156 8.507813 350.984375 9.097656 350.984375 9.855469 C 350.984375 10.78125 350.648438 11.523438 349.972656 12.042969 "/>
<path style=" stroke:none;fill-rule:nonzero;fill:rgb(24.705505%,24.705505%,24.705505%);fill-opacity:1;" d="M 357.46875 12.746094 L 357.46875 11.707031 C 356.78125 12.421875 356.039063 12.746094 355.140625 12.746094 C 354.507813 12.746094 353.960938 12.578125 353.59375 12.269531 C 353.328125 12.03125 353.132813 11.707031 353.035156 11.328125 C 352.9375 10.9375 352.921875 10.796875 352.921875 9.628906 L 352.921875 7.03125 C 352.921875 6.261719 352.851563 6.066406 352.5 5.921875 L 352.164063 5.785156 L 352.164063 5.488281 L 354.28125 4.886719 L 354.28125 9.277344 C 354.28125 10.359375 354.296875 10.625 354.394531 10.9375 C 354.5625 11.484375 355.085938 11.75 355.941406 11.75 C 356.472656 11.75 356.980469 11.652344 357.398438 11.46875 L 357.429688 11.46875 L 357.429688 7.03125 C 357.429688 6.261719 357.359375 6.066406 357.007813 5.921875 L 356.65625 5.785156 L 356.65625 5.488281 L 358.777344 4.886719 L 358.777344 10.726563 C 358.777344 11.511719 358.847656 11.695313 359.210938 11.847656 L 359.546875 11.988281 L 359.546875 12.285156 Z M 357.46875 12.746094 "/>
<path style=" stroke:none;fill-rule:nonzero;fill:rgb(24.705505%,24.705505%,24.705505%);fill-opacity:1;" d="M 364.167969 5.882813 C 363.675781 5.882813 363.199219 5.980469 362.804688 6.148438 L 362.804688 11.804688 C 363.171875 11.890625 363.550781 11.933594 363.914063 11.933594 C 365.570313 11.933594 366.386719 10.878906 366.386719 8.71875 C 366.386719 6.792969 365.667969 5.882813 364.167969 5.882813 M 364.378906 12.746094 C 363.800781 12.746094 363.351563 12.632813 362.804688 12.367188 L 362.804688 13.8125 C 362.804688 14.699219 362.863281 14.90625 363.253906 15.078125 L 363.746094 15.289063 L 363.746094 15.582031 L 360.6875 15.582031 L 360.6875 15.289063 L 361.039063 15.089844 C 361.386719 14.894531 361.445313 14.710938 361.445313 13.839844 L 361.445313 7.03125 C 361.445313 6.261719 361.375 6.066406 361.023438 5.925781 L 360.6875 5.785156 L 360.6875 5.488281 L 362.761719 4.886719 L 362.761719 5.910156 C 363.453125 5.195313 364.167969 4.886719 365.039063 4.886719 C 366.792969 4.886719 367.816406 6.234375 367.816406 8.535156 C 367.816406 11.144531 366.511719 12.746094 364.378906 12.746094 "/>
<path style=" stroke:none;fill-rule:nonzero;fill:rgb(24.705505%,24.705505%,24.705505%);fill-opacity:1;" d="M 373.742188 7.621094 C 373.742188 6.332031 373.253906 5.699219 372.183594 5.699219 C 371.0625 5.699219 370.457031 6.484375 370.429688 7.960938 Z M 372.351563 12.746094 C 370.191406 12.746094 369.027344 11.441406 369.027344 9.011719 C 369.027344 6.429688 370.304688 4.886719 372.421875 4.886719 C 374.332031 4.886719 375.21875 5.980469 375.21875 8.351563 L 375.21875 8.507813 L 370.417969 8.507813 L 370.417969 8.660156 C 370.417969 10.921875 371.175781 11.777344 373.167969 11.777344 C 373.785156 11.777344 374.402344 11.664063 374.976563 11.457031 L 374.976563 11.734375 C 374.277344 12.4375 373.460938 12.746094 372.351563 12.746094 "/>
<path style=" stroke:none;fill-rule:nonzero;fill:rgb(24.705505%,24.705505%,24.705505%);fill-opacity:1;" d="M 380.71875 6.414063 C 380.59375 6.414063 380.535156 6.402344 380.453125 6.34375 L 380.101563 6.105469 C 379.917969 5.980469 379.707031 5.921875 379.511719 5.921875 C 379.234375 5.921875 378.910156 6.023438 378.613281 6.191406 L 378.613281 10.851563 C 378.613281 11.734375 378.683594 11.945313 379.078125 12.113281 L 379.570313 12.324219 L 379.570313 12.621094 L 376.492188 12.621094 L 376.492188 12.324219 L 376.859375 12.128906 C 377.210938 11.933594 377.265625 11.75 377.265625 10.894531 L 377.265625 7.03125 C 377.265625 6.261719 377.195313 6.066406 376.84375 5.921875 L 376.492188 5.785156 L 376.492188 5.488281 L 378.574219 4.886719 L 378.574219 5.953125 L 378.601563 5.921875 C 379.246094 5.277344 379.960938 4.886719 380.566406 4.886719 C 381.140625 4.886719 381.503906 5.179688 381.503906 5.644531 C 381.503906 6.09375 381.183594 6.414063 380.71875 6.414063 "/>
<path style=" stroke:none;fill-rule:nonzero;fill:rgb(24.705505%,24.705505%,24.705505%);fill-opacity:1;" d="M 388.734375 5.503906 C 388.539063 5.683594 388.425781 5.882813 388.175781 6.527344 L 385.816406 12.660156 L 384.59375 12.660156 L 382.449219 6.527344 C 382.25 5.964844 382.09375 5.683594 381.898438 5.503906 L 381.675781 5.304688 L 381.675781 5.011719 L 384.132813 5.011719 L 384.132813 5.304688 L 383.921875 5.503906 C 383.796875 5.613281 383.710938 5.769531 383.710938 5.925781 C 383.710938 6.066406 383.753906 6.21875 383.808594 6.402344 L 385.183594 10.558594 C 385.324219 10.992188 385.367188 11.144531 385.421875 11.566406 C 385.507813 11.089844 385.5625 10.90625 385.6875 10.527344 L 387.09375 6.402344 C 387.148438 6.21875 387.191406 6.066406 387.191406 5.925781 C 387.191406 5.769531 387.105469 5.613281 386.980469 5.503906 L 386.769531 5.304688 L 386.769531 5.011719 L 388.949219 5.011719 L 388.949219 5.304688 Z M 388.734375 5.503906 "/>
<path style=" stroke:none;fill-rule:nonzero;fill:rgb(24.705505%,24.705505%,24.705505%);fill-opacity:1;" d="M 391.277344 3.339844 C 390.789063 3.339844 390.476563 3.046875 390.476563 2.554688 C 390.476563 2.050781 390.789063 1.753906 391.304688 1.753906 C 391.796875 1.753906 392.105469 2.050781 392.105469 2.539063 C 392.105469 3.046875 391.796875 3.339844 391.277344 3.339844 M 389.832031 12.621094 L 389.832031 12.324219 L 390.199219 12.128906 C 390.550781 11.933594 390.605469 11.75 390.605469 10.894531 L 390.605469 7.03125 C 390.605469 6.261719 390.535156 6.066406 390.183594 5.925781 L 389.832031 5.785156 L 389.832031 5.488281 L 391.953125 4.886719 L 391.953125 10.894531 C 391.953125 11.75 392.023438 11.933594 392.375 12.128906 L 392.722656 12.324219 L 392.722656 12.621094 Z M 389.832031 12.621094 "/>
<path style=" stroke:none;fill-rule:nonzero;fill:rgb(24.705505%,24.705505%,24.705505%);fill-opacity:1;" d="M 396.023438 12.746094 C 395.433594 12.746094 394.875 12.71875 394.183594 12.550781 L 394.128906 12.535156 L 394.128906 10.90625 L 394.410156 10.90625 L 394.703125 11.257813 C 395.179688 11.832031 395.574219 12.003906 396.261719 12.003906 C 397.175781 12.003906 397.695313 11.554688 397.695313 10.78125 C 397.695313 10.261719 397.46875 9.925781 396.851563 9.601563 L 395.6875 8.984375 C 394.648438 8.4375 394.253906 7.863281 394.253906 6.976563 C 394.253906 5.65625 395.222656 4.886719 396.878906 4.886719 C 397.398438 4.886719 398.296875 4.996094 398.632813 5.09375 L 398.632813 6.625 L 398.351563 6.625 L 398.03125 6.304688 C 397.863281 6.132813 397.355469 5.585938 396.65625 5.601563 C 395.910156 5.617188 395.460938 6.023438 395.460938 6.710938 C 395.460938 7.214844 395.703125 7.539063 396.304688 7.847656 L 397.539063 8.480469 C 398.507813 8.96875 398.902344 9.558594 398.902344 10.457031 C 398.902344 11.933594 397.878906 12.746094 396.023438 12.746094 "/>
<path style=" stroke:none;fill-rule:nonzero;fill:rgb(24.705505%,24.705505%,24.705505%);fill-opacity:1;" d="M 401.753906 3.339844 C 401.261719 3.339844 400.953125 3.046875 400.953125 2.554688 C 400.953125 2.050781 401.261719 1.753906 401.78125 1.753906 C 402.273438 1.753906 402.578125 2.050781 402.578125 2.539063 C 402.578125 3.046875 402.273438 3.339844 401.753906 3.339844 M 400.304688 12.621094 L 400.304688 12.324219 L 400.671875 12.128906 C 401.023438 11.933594 401.078125 11.75 401.078125 10.894531 L 401.078125 7.03125 C 401.078125 6.261719 401.007813 6.066406 400.65625 5.925781 L 400.304688 5.785156 L 400.304688 5.488281 L 402.425781 4.886719 L 402.425781 10.894531 C 402.425781 11.75 402.496094 11.933594 402.847656 12.128906 L 403.199219 12.324219 L 403.199219 12.621094 Z M 400.304688 12.621094 "/>
<path style=" stroke:none;fill-rule:nonzero;fill:rgb(24.705505%,24.705505%,24.705505%);fill-opacity:1;" d="M 407.816406 5.671875 C 406.457031 5.671875 405.867188 6.625 405.867188 8.828125 C 405.867188 11.019531 406.425781 11.960938 407.746094 11.960938 C 409.109375 11.960938 409.699219 11.003906 409.699219 8.816406 C 409.699219 6.597656 409.136719 5.671875 407.816406 5.671875 M 407.703125 12.746094 C 405.585938 12.746094 404.40625 11.371094 404.40625 8.914063 C 404.40625 6.359375 405.667969 4.886719 407.859375 4.886719 C 409.964844 4.886719 411.160156 6.261719 411.160156 8.691406 C 411.160156 11.257813 409.894531 12.746094 407.703125 12.746094 "/>
<path style=" stroke:none;fill-rule:nonzero;fill:rgb(24.705505%,24.705505%,24.705505%);fill-opacity:1;" d="M 416.957031 12.621094 L 416.957031 12.324219 L 417.308594 12.128906 C 417.65625 11.933594 417.726563 11.75 417.726563 10.894531 L 417.726563 8.351563 C 417.726563 7.230469 417.699219 7.019531 417.601563 6.695313 C 417.421875 6.164063 416.886719 5.882813 416.042969 5.882813 C 415.523438 5.882813 414.992188 5.996094 414.570313 6.175781 L 414.570313 10.894531 C 414.570313 11.75 414.640625 11.933594 414.992188 12.128906 L 415.34375 12.324219 L 415.34375 12.621094 L 412.449219 12.621094 L 412.449219 12.324219 L 412.816406 12.128906 C 413.164063 11.933594 413.222656 11.75 413.222656 10.894531 L 413.222656 7.03125 C 413.222656 6.261719 413.152344 6.0625 412.800781 5.925781 L 412.449219 5.785156 L 412.449219 5.488281 L 414.527344 4.886719 L 414.527344 5.910156 C 415.214844 5.222656 415.960938 4.886719 416.84375 4.886719 C 417.460938 4.886719 418.078125 5.054688 418.515625 5.488281 C 418.753906 5.726563 418.9375 6.0625 419.019531 6.597656 C 419.074219 6.933594 419.074219 7.382813 419.074219 7.988281 L 419.074219 10.894531 C 419.074219 11.75 419.132813 11.933594 419.484375 12.128906 L 419.847656 12.324219 L 419.847656 12.621094 Z M 416.957031 12.621094 "/>
<path style=" stroke:none;fill-rule:evenodd;fill:rgb(100%,100%,100%);fill-opacity:1;" d="M 423.75 341.398438 L 441.75 341.398438 L 441.75 269.398438 L 423.75 269.398438 Z M 423.75 341.398438 "/>
<path style=" stroke:none;fill-rule:nonzero;fill:rgb(24.705505%,24.705505%,24.705505%);fill-opacity:1;" d="M 427.09375 295.507813 C 427.09375 294.734375 427.507813 294.335938 428.300781 294.335938 C 429.128906 294.335938 429.5625 294.75 429.5625 295.5625 C 429.5625 296.335938 429.128906 296.75 428.335938 296.75 C 427.507813 296.75 427.09375 296.335938 427.09375 295.507813 "/>
<path style="fill:none;stroke-width:5.14;stroke-linecap:round;stroke-linejoin:round;stroke:rgb(24.705505%,24.705505%,24.705505%);stroke-opacity:1;stroke-miterlimit:10;" d="M 4270.9375 1414.921875 C 4270.9375 1422.65625 4275.078125 1426.640625 4283.007813 1426.640625 C 4291.289063 1426.640625 4295.625 1422.5 4295.625 1414.375 C 4295.625 1406.640625 4291.289063 1402.5 4283.359375 1402.5 C 4275.078125 1402.5 4270.9375 1406.640625 4270.9375 1414.921875 Z M 4270.9375 1414.921875 " transform="matrix(0.1,0,0,-0.1,0,437)"/>
<path style=" stroke:none;fill-rule:nonzero;fill:rgb(24.705505%,24.705505%,24.705505%);fill-opacity:1;" d="M 427.097656 305.191406 C 427.097656 304.417969 427.511719 304.023438 428.300781 304.023438 C 429.132813 304.023438 429.5625 304.4375 429.5625 305.246094 C 429.5625 306.019531 429.132813 306.433594 428.339844 306.433594 C 427.511719 306.433594 427.097656 306.019531 427.097656 305.191406 "/>
<path style="fill:none;stroke-width:5.14;stroke-linecap:round;stroke-linejoin:round;stroke:rgb(24.705505%,24.705505%,24.705505%);stroke-opacity:1;stroke-miterlimit:10;" d="M 4270.976563 1318.085938 C 4270.976563 1325.820313 4275.117188 1329.765625 4283.007813 1329.765625 C 4291.328125 1329.765625 4295.625 1325.625 4295.625 1317.539063 C 4295.625 1309.804688 4291.328125 1305.664063 4283.398438 1305.664063 C 4275.117188 1305.664063 4270.976563 1309.804688 4270.976563 1318.085938 Z M 4270.976563 1318.085938 " transform="matrix(0.1,0,0,-0.1,0,437)"/>
<path style=" stroke:none;fill-rule:nonzero;fill:rgb(24.705505%,24.705505%,24.705505%);fill-opacity:1;" d="M 427.097656 314.875 C 427.097656 314.101563 427.511719 313.707031 428.300781 313.707031 C 429.132813 313.707031 429.5625 314.121094 429.5625 314.929688 C 429.5625 315.703125 429.132813 316.117188 428.339844 316.117188 C 427.511719 316.117188 427.097656 315.703125 427.097656 314.875 "/>
<path style="fill:none;stroke-width:5.14;stroke-linecap:round;stroke-linejoin:round;stroke:rgb(24.705505%,24.705505%,24.705505%);stroke-opacity:1;stroke-miterlimit:10;" d="M 4270.976563 1221.25 C 4270.976563 1228.984375 4275.117188 1232.929688 4283.007813 1232.929688 C 4291.328125 1232.929688 4295.625 1228.789063 4295.625 1220.703125 C 4295.625 1212.96875 4291.328125 1208.828125 4283.398438 1208.828125 C 4275.117188 1208.828125 4270.976563 1212.96875 4270.976563 1221.25 Z M 4270.976563 1221.25 " transform="matrix(0.1,0,0,-0.1,0,437)"/>
<path style=" stroke:none;fill-rule:evenodd;fill:rgb(98.826599%,92.1875%,86.71875%);fill-opacity:1;" d="M 212.609375 93.898438 C 212.609375 69.101563 232.71875 48.988281 257.519531 48.988281 C 282.320313 48.988281 302.429688 69.101563 302.429688 93.898438 C 302.429688 118.699219 282.320313 138.808594 257.519531 138.808594 C 232.71875 138.808594 212.609375 118.699219 212.609375 93.898438 "/>
<path style="fill:none;stroke-width:15;stroke-linecap:round;stroke-linejoin:round;stroke:rgb(85.15625%,58.396912%,56.054688%);stroke-opacity:1;stroke-miterlimit:10;" d="M 2126.09375 3431.015625 C 2126.09375 3678.984375 2327.1875 3880.117188 2575.195313 3880.117188 C 2823.203125 3880.117188 3024.296875 3678.984375 3024.296875 3431.015625 C 3024.296875 3183.007813 2823.203125 2981.914063 2575.195313 2981.914063 C 2327.1875 2981.914063 2126.09375 3183.007813 2126.09375 3431.015625 Z M 2126.09375 3431.015625 " transform="matrix(0.1,0,0,-0.1,0,437)"/>
<path style=" stroke:none;fill-rule:nonzero;fill:rgb(24.705505%,24.705505%,24.705505%);fill-opacity:1;" d="M 232.398438 98.601563 C 231.589844 99.230469 230.542969 99.5 228.921875 99.5 C 227.878906 99.5 226.601563 99.304688 225.914063 99.125 L 225.914063 96.691406 L 226.277344 96.691406 L 226.996094 97.523438 C 227.140625 97.683594 227.320313 97.84375 227.5 97.972656 C 228.023438 98.351563 228.402344 98.457031 229.230469 98.457031 C 230.941406 98.457031 231.910156 97.613281 231.910156 96.101563 C 231.910156 95.828125 231.875 95.558594 231.785156 95.289063 C 231.605469 94.675781 231.226563 94.316406 230.164063 93.703125 L 228.402344 92.675781 C 227.933594 92.40625 227.519531 92.121094 227.175781 91.832031 C 226.492188 91.238281 226.113281 90.390625 226.113281 89.382813 C 226.113281 87.1875 227.644531 85.945313 230.363281 85.945313 C 231.28125 85.945313 232.324219 86.125 233.226563 86.304688 L 233.316406 86.320313 L 233.316406 88.589844 L 232.957031 88.589844 L 232.253906 87.90625 C 231.480469 87.167969 231.101563 86.988281 230.109375 86.988281 C 228.652344 86.988281 227.84375 87.691406 227.84375 88.949219 C 227.84375 89.292969 227.898438 89.617188 228.003906 89.851563 C 228.257813 90.410156 228.617188 90.714844 229.875 91.453125 L 231.175781 92.210938 C 231.859375 92.605469 232.363281 92.984375 232.757813 93.378906 C 233.441406 94.066406 233.695313 94.820313 233.695313 95.792969 C 233.695313 96.980469 233.261719 97.9375 232.398438 98.601563 "/>
<path style=" stroke:none;fill-rule:nonzero;fill:rgb(24.705505%,24.705505%,24.705505%);fill-opacity:1;" d="M 241.867188 98.601563 C 241.054688 99.230469 240.011719 99.5 238.390625 99.5 C 237.347656 99.5 236.066406 99.304688 235.382813 99.125 L 235.382813 96.691406 L 235.742188 96.691406 L 236.464844 97.523438 C 236.609375 97.683594 236.789063 97.84375 236.96875 97.972656 C 237.492188 98.351563 237.867188 98.457031 238.695313 98.457031 C 240.40625 98.457031 241.378906 97.613281 241.378906 96.101563 C 241.378906 95.828125 241.34375 95.558594 241.253906 95.289063 C 241.074219 94.675781 240.695313 94.316406 239.632813 93.703125 L 237.867188 92.675781 C 237.402344 92.40625 236.988281 92.121094 236.644531 91.832031 C 235.960938 91.238281 235.582031 90.390625 235.582031 89.382813 C 235.582031 87.1875 237.113281 85.945313 239.832031 85.945313 C 240.75 85.945313 241.792969 86.125 242.695313 86.304688 L 242.785156 86.320313 L 242.785156 88.589844 L 242.421875 88.589844 L 241.722656 87.90625 C 240.949219 87.167969 240.570313 86.988281 239.578125 86.988281 C 238.121094 86.988281 237.3125 87.691406 237.3125 88.949219 C 237.3125 89.292969 237.363281 89.617188 237.472656 89.851563 C 237.726563 90.410156 238.085938 90.714844 239.34375 91.453125 L 240.640625 92.210938 C 241.324219 92.605469 241.828125 92.984375 242.226563 93.378906 C 242.910156 94.066406 243.160156 94.820313 243.160156 95.792969 C 243.160156 96.980469 242.730469 97.9375 241.867188 98.601563 "/>
<path style=" stroke:none;fill-rule:nonzero;fill:rgb(24.705505%,24.705505%,24.705505%);fill-opacity:1;" d="M 247.210938 97.125 C 247.210938 98.222656 247.28125 98.457031 247.730469 98.710938 L 248.183594 98.960938 L 248.183594 99.339844 L 244.886719 99.339844 L 244.886719 98.960938 L 245.355469 98.710938 C 245.804688 98.457031 245.878906 98.222656 245.878906 97.125 L 245.878906 88.320313 C 245.878906 87.222656 245.804688 86.988281 245.355469 86.734375 L 244.886719 86.484375 L 244.886719 86.105469 L 247.859375 86.105469 L 253.675781 95.074219 C 253.945313 95.488281 254.035156 95.722656 254.230469 96.296875 L 254.230469 88.320313 C 254.230469 87.222656 254.140625 86.988281 253.691406 86.734375 L 253.242188 86.484375 L 253.242188 86.105469 L 256.539063 86.105469 L 256.539063 86.484375 L 256.085938 86.734375 C 255.636719 86.988281 255.5625 87.222656 255.5625 88.320313 L 255.5625 99.394531 L 254.464844 99.394531 L 247.695313 89.003906 C 247.410156 88.574219 247.320313 88.355469 247.210938 87.835938 Z M 247.210938 97.125 "/>
<path style=" stroke:none;fill-rule:nonzero;fill:rgb(24.705505%,24.705505%,24.705505%);fill-opacity:1;" d="M 269.929688 98.710938 C 270.378906 98.457031 270.453125 98.222656 270.453125 97.125 L 270.453125 86.808594 C 270.359375 87.457031 270.308594 87.707031 270.089844 88.300781 L 266.058594 99.339844 L 264.835938 99.339844 L 260.800781 88.300781 C 260.585938 87.707031 260.53125 87.457031 260.441406 86.808594 L 260.441406 97.125 C 260.441406 98.222656 260.53125 98.457031 260.980469 98.710938 L 261.429688 98.960938 L 261.429688 99.339844 L 258.152344 99.339844 L 258.152344 98.960938 L 258.621094 98.710938 C 259.070313 98.457031 259.144531 98.222656 259.144531 97.125 L 259.144531 88.320313 C 259.144531 87.222656 259.070313 86.988281 258.621094 86.734375 L 258.152344 86.484375 L 258.152344 86.105469 L 261.863281 86.105469 L 265.464844 96.007813 C 265.625 96.476563 265.679688 96.691406 265.769531 97.269531 C 265.824219 96.710938 265.894531 96.476563 266.058594 96.027344 L 269.660156 86.105469 L 273.207031 86.105469 L 273.207031 86.484375 L 272.757813 86.734375 C 272.289063 86.988281 272.214844 87.222656 272.214844 88.320313 L 272.214844 97.125 C 272.214844 98.222656 272.289063 98.457031 272.757813 98.710938 L 273.207031 98.960938 L 273.207031 99.339844 L 269.460938 99.339844 L 269.460938 98.960938 Z M 269.929688 98.710938 "/>
<path style=" stroke:none;fill-rule:nonzero;fill:rgb(24.705505%,24.705505%,24.705505%);fill-opacity:1;" d="M 282.601563 88.589844 L 281.824219 87.671875 C 281.628906 87.4375 281.464844 87.292969 281.214844 87.203125 C 280.960938 87.113281 280.617188 87.097656 280.113281 87.097656 L 277.757813 87.097656 L 277.757813 91.921875 L 279.574219 91.921875 C 280.4375 91.921875 280.636719 91.851563 281.03125 91.417969 L 281.519531 90.878906 L 281.96875 90.878906 L 281.96875 93.957031 L 281.519531 93.957031 L 281.03125 93.433594 C 280.617188 93 280.4375 92.910156 279.574219 92.910156 L 277.757813 92.910156 L 277.757813 97.070313 C 277.757813 98.207031 277.847656 98.476563 278.351563 98.691406 L 278.980469 98.960938 L 278.980469 99.339844 L 274.929688 99.339844 L 274.929688 98.960938 L 275.398438 98.710938 C 275.847656 98.457031 275.921875 98.222656 275.921875 97.125 L 275.921875 88.320313 C 275.921875 87.222656 275.847656 86.988281 275.398438 86.734375 L 274.929688 86.484375 L 274.929688 86.105469 L 283.050781 86.105469 L 283.050781 88.589844 Z M 282.601563 88.589844 "/>
<path style=" stroke:none;fill-rule:nonzero;fill:rgb(24.705505%,24.705505%,24.705505%);fill-opacity:1;" d="M 285.480469 102.050781 L 285.480469 101.804688 L 285.878906 101.632813 C 286.203125 101.492188 286.261719 101.328125 286.261719 100.582031 L 286.261719 95.121094 C 286.261719 94.925781 286.203125 94.855469 286.027344 94.855469 C 285.949219 94.855469 285.878906 94.867188 285.808594 94.878906 L 284.328125 95.144531 L 284.328125 94.796875 L 284.445313 94.75 C 285.714844 94.238281 286.425781 93.875 287.101563 93.421875 L 287.449219 93.421875 L 287.449219 100.582031 C 287.449219 101.328125 287.507813 101.492188 287.832031 101.632813 L 288.230469 101.804688 L 288.230469 102.050781 Z M 285.480469 102.050781 "/>
<path style=" stroke:none;fill-rule:evenodd;fill:rgb(98.826599%,92.1875%,86.71875%);fill-opacity:1;" d="M 212.609375 219.898438 C 212.609375 195.101563 232.71875 174.988281 257.519531 174.988281 C 282.320313 174.988281 302.429688 195.101563 302.429688 219.898438 C 302.429688 244.699219 282.320313 264.808594 257.519531 264.808594 C 232.71875 264.808594 212.609375 244.699219 212.609375 219.898438 "/>
<path style="fill:none;stroke-width:15;stroke-linecap:round;stroke-linejoin:round;stroke:rgb(85.15625%,58.396912%,56.054688%);stroke-opacity:1;stroke-miterlimit:10;" d="M 2126.09375 2171.015625 C 2126.09375 2418.984375 2327.1875 2620.117188 2575.195313 2620.117188 C 2823.203125 2620.117188 3024.296875 2418.984375 3024.296875 2171.015625 C 3024.296875 1923.007813 2823.203125 1721.914063 2575.195313 1721.914063 C 2327.1875 1721.914063 2126.09375 1923.007813 2126.09375 2171.015625 Z M 2126.09375 2171.015625 " transform="matrix(0.1,0,0,-0.1,0,437)"/>
<path style=" stroke:none;fill-rule:nonzero;fill:rgb(24.705505%,24.705505%,24.705505%);fill-opacity:1;" d="M 232.398438 224.621094 C 231.589844 225.25 230.542969 225.523438 228.921875 225.523438 C 227.878906 225.523438 226.601563 225.324219 225.914063 225.144531 L 225.914063 222.714844 L 226.277344 222.714844 L 226.996094 223.542969 C 227.140625 223.703125 227.320313 223.867188 227.5 223.992188 C 228.023438 224.371094 228.402344 224.476563 229.230469 224.476563 C 230.941406 224.476563 231.910156 223.632813 231.910156 222.117188 C 231.910156 221.851563 231.875 221.578125 231.785156 221.308594 C 231.605469 220.695313 231.226563 220.335938 230.164063 219.726563 L 228.402344 218.699219 C 227.933594 218.429688 227.519531 218.140625 227.175781 217.851563 C 226.492188 217.257813 226.113281 216.410156 226.113281 215.402344 C 226.113281 213.207031 227.644531 211.964844 230.363281 211.964844 C 231.28125 211.964844 232.324219 212.144531 233.226563 212.324219 L 233.316406 212.339844 L 233.316406 214.609375 L 232.957031 214.609375 L 232.253906 213.925781 C 231.480469 213.1875 231.101563 213.007813 230.109375 213.007813 C 228.652344 213.007813 227.84375 213.710938 227.84375 214.96875 C 227.84375 215.3125 227.898438 215.636719 228.003906 215.871094 C 228.257813 216.429688 228.617188 216.734375 229.875 217.472656 L 231.175781 218.230469 C 231.859375 218.625 232.363281 219.003906 232.757813 219.398438 C 233.441406 220.085938 233.695313 220.839844 233.695313 221.8125 C 233.695313 223 233.261719 223.957031 232.398438 224.621094 "/>
<path style=" stroke:none;fill-rule:nonzero;fill:rgb(24.705505%,24.705505%,24.705505%);fill-opacity:1;" d="M 241.867188 224.621094 C 241.054688 225.25 240.011719 225.523438 238.390625 225.523438 C 237.347656 225.523438 236.066406 225.324219 235.382813 225.144531 L 235.382813 222.714844 L 235.742188 222.714844 L 236.464844 223.542969 C 236.609375 223.703125 236.789063 223.867188 236.96875 223.992188 C 237.492188 224.371094 237.867188 224.476563 238.695313 224.476563 C 240.40625 224.476563 241.378906 223.632813 241.378906 222.117188 C 241.378906 221.851563 241.34375 221.578125 241.253906 221.308594 C 241.074219 220.695313 240.695313 220.335938 239.632813 219.726563 L 237.867188 218.699219 C 237.402344 218.429688 236.988281 218.140625 236.644531 217.851563 C 235.960938 217.257813 235.582031 216.410156 235.582031 215.402344 C 235.582031 213.207031 237.113281 211.964844 239.832031 211.964844 C 240.75 211.964844 241.792969 212.144531 242.695313 212.324219 L 242.785156 212.339844 L 242.785156 214.609375 L 242.421875 214.609375 L 241.722656 213.925781 C 240.949219 213.1875 240.570313 213.007813 239.578125 213.007813 C 238.121094 213.007813 237.3125 213.710938 237.3125 214.96875 C 237.3125 215.3125 237.363281 215.636719 237.472656 215.871094 C 237.726563 216.429688 238.085938 216.734375 239.34375 217.472656 L 240.640625 218.230469 C 241.324219 218.625 241.828125 219.003906 242.226563 219.398438 C 242.910156 220.085938 243.160156 220.839844 243.160156 221.8125 C 243.160156 223 242.730469 223.957031 241.867188 224.621094 "/>
<path style=" stroke:none;fill-rule:nonzero;fill:rgb(24.705505%,24.705505%,24.705505%);fill-opacity:1;" d="M 247.210938 223.144531 C 247.210938 224.242188 247.28125 224.476563 247.730469 224.730469 L 248.183594 224.980469 L 248.183594 225.359375 L 244.886719 225.359375 L 244.886719 224.980469 L 245.355469 224.730469 C 245.804688 224.476563 245.878906 224.242188 245.878906 223.144531 L 245.878906 214.339844 C 245.878906 213.242188 245.804688 213.007813 245.355469 212.757813 L 244.886719 212.503906 L 244.886719 212.125 L 247.859375 212.125 L 253.675781 221.09375 C 253.945313 221.507813 254.035156 221.742188 254.230469 222.316406 L 254.230469 214.339844 C 254.230469 213.242188 254.140625 213.007813 253.691406 212.757813 L 253.242188 212.503906 L 253.242188 212.125 L 256.539063 212.125 L 256.539063 212.503906 L 256.085938 212.757813 C 255.636719 213.007813 255.5625 213.242188 255.5625 214.339844 L 255.5625 225.414063 L 254.464844 225.414063 L 247.695313 215.023438 C 247.410156 214.59375 247.320313 214.375 247.210938 213.855469 Z M 247.210938 223.144531 "/>
<path style=" stroke:none;fill-rule:nonzero;fill:rgb(24.705505%,24.705505%,24.705505%);fill-opacity:1;" d="M 269.929688 224.730469 C 270.378906 224.476563 270.453125 224.242188 270.453125 223.144531 L 270.453125 212.828125 C 270.359375 213.476563 270.308594 213.730469 270.089844 214.324219 L 266.058594 225.359375 L 264.835938 225.359375 L 260.800781 214.324219 C 260.585938 213.730469 260.53125 213.476563 260.441406 212.828125 L 260.441406 223.144531 C 260.441406 224.242188 260.53125 224.476563 260.980469 224.730469 L 261.429688 224.980469 L 261.429688 225.359375 L 258.152344 225.359375 L 258.152344 224.980469 L 258.621094 224.730469 C 259.070313 224.476563 259.144531 224.242188 259.144531 223.144531 L 259.144531 214.339844 C 259.144531 213.242188 259.070313 213.007813 258.621094 212.757813 L 258.152344 212.503906 L 258.152344 212.125 L 261.863281 212.125 L 265.464844 222.027344 C 265.625 222.496094 265.679688 222.714844 265.769531 223.289063 C 265.824219 222.730469 265.894531 222.496094 266.058594 222.046875 L 269.660156 212.125 L 273.207031 212.125 L 273.207031 212.503906 L 272.757813 212.757813 C 272.289063 213.007813 272.214844 213.242188 272.214844 214.339844 L 272.214844 223.144531 C 272.214844 224.242188 272.289063 224.476563 272.757813 224.730469 L 273.207031 224.980469 L 273.207031 225.359375 L 269.460938 225.359375 L 269.460938 224.980469 Z M 269.929688 224.730469 "/>
<path style=" stroke:none;fill-rule:nonzero;fill:rgb(24.705505%,24.705505%,24.705505%);fill-opacity:1;" d="M 282.601563 214.609375 L 281.824219 213.691406 C 281.628906 213.457031 281.464844 213.316406 281.214844 213.222656 C 280.960938 213.132813 280.617188 213.117188 280.113281 213.117188 L 277.757813 213.117188 L 277.757813 217.941406 L 279.574219 217.941406 C 280.4375 217.941406 280.636719 217.871094 281.03125 217.4375 L 281.519531 216.898438 L 281.96875 216.898438 L 281.96875 219.976563 L 281.519531 219.976563 L 281.03125 219.453125 C 280.617188 219.023438 280.4375 218.933594 279.574219 218.933594 L 277.757813 218.933594 L 277.757813 223.089844 C 277.757813 224.226563 277.847656 224.496094 278.351563 224.710938 L 278.980469 224.980469 L 278.980469 225.359375 L 274.929688 225.359375 L 274.929688 224.980469 L 275.398438 224.730469 C 275.847656 224.476563 275.921875 224.242188 275.921875 223.144531 L 275.921875 214.339844 C 275.921875 213.242188 275.847656 213.007813 275.398438 212.757813 L 274.929688 212.503906 L 274.929688 212.125 L 283.050781 212.125 L 283.050781 214.609375 Z M 282.601563 214.609375 "/>
<path style=" stroke:none;fill-rule:nonzero;fill:rgb(24.705505%,24.705505%,24.705505%);fill-opacity:1;" d="M 288.859375 228.070313 L 283.746094 228.070313 L 283.746094 227.417969 L 283.886719 227.242188 C 285.085938 225.964844 286.203125 224.949219 286.785156 224.226563 C 287.4375 223.402344 287.707031 222.691406 287.707031 221.734375 C 287.707031 220.570313 287.242188 220.050781 286.191406 220.050781 C 285.667969 220.050781 285.355469 220.175781 285.15625 220.445313 L 284.851563 220.863281 C 284.796875 220.945313 284.691406 221.003906 284.492188 221.003906 C 284.085938 221.003906 283.839844 220.792969 283.839844 220.445313 C 283.839844 219.851563 284.851563 219.40625 286.214844 219.40625 C 288.03125 219.40625 288.988281 220.1875 288.988281 221.667969 C 288.988281 222.785156 288.542969 223.691406 287.4375 224.808594 C 286.84375 225.402344 286.378906 225.859375 285.238281 226.871094 L 284.945313 227.125 L 287.367188 227.125 C 287.589844 227.125 287.765625 227.125 287.878906 227.101563 C 288.101563 227.082031 288.371094 226.953125 288.542969 226.777344 L 288.964844 226.359375 L 289.265625 226.359375 Z M 288.859375 228.070313 "/>
<path style=" stroke:none;fill-rule:evenodd;fill:rgb(98.826599%,92.1875%,86.71875%);fill-opacity:1;" d="M 212.609375 390.898438 C 212.609375 366.101563 232.71875 345.988281 257.519531 345.988281 C 282.320313 345.988281 302.429688 366.101563 302.429688 390.898438 C 302.429688 415.699219 282.320313 435.808594 257.519531 435.808594 C 232.71875 435.808594 212.609375 415.699219 212.609375 390.898438 "/>
<path style="fill:none;stroke-width:15;stroke-linecap:round;stroke-linejoin:round;stroke:rgb(85.15625%,58.396912%,56.054688%);stroke-opacity:1;stroke-miterlimit:10;" d="M 2126.09375 461.015625 C 2126.09375 708.984375 2327.1875 910.117188 2575.195313 910.117188 C 2823.203125 910.117188 3024.296875 708.984375 3024.296875 461.015625 C 3024.296875 213.007813 2823.203125 11.914063 2575.195313 11.914063 C 2327.1875 11.914063 2126.09375 213.007813 2126.09375 461.015625 Z M 2126.09375 461.015625 " transform="matrix(0.1,0,0,-0.1,0,437)"/>
<path style=" stroke:none;fill-rule:nonzero;fill:rgb(24.705505%,24.705505%,24.705505%);fill-opacity:1;" d="M 232.402344 395.640625 C 231.59375 396.273438 230.546875 396.542969 228.925781 396.542969 C 227.882813 396.542969 226.601563 396.34375 225.917969 396.164063 L 225.917969 393.730469 L 226.277344 393.730469 L 227 394.558594 C 227.140625 394.722656 227.324219 394.882813 227.503906 395.011719 C 228.023438 395.390625 228.402344 395.496094 229.230469 395.496094 C 230.945313 395.496094 231.917969 394.648438 231.917969 393.136719 C 231.917969 392.867188 231.882813 392.597656 231.792969 392.328125 C 231.609375 391.714844 231.234375 391.351563 230.167969 390.738281 L 228.402344 389.710938 C 227.933594 389.441406 227.519531 389.152344 227.179688 388.867188 C 226.492188 388.269531 226.117188 387.425781 226.117188 386.414063 C 226.117188 384.214844 227.648438 382.972656 230.367188 382.972656 C 231.289063 382.972656 232.332031 383.152344 233.234375 383.332031 L 233.324219 383.351563 L 233.324219 385.621094 L 232.964844 385.621094 L 232.261719 384.9375 C 231.484375 384.199219 231.105469 384.019531 230.117188 384.019531 C 228.65625 384.019531 227.84375 384.722656 227.84375 385.984375 C 227.84375 386.324219 227.898438 386.648438 228.007813 386.882813 C 228.257813 387.441406 228.621094 387.75 229.882813 388.488281 L 231.179688 389.246094 C 231.863281 389.640625 232.367188 390.019531 232.765625 390.414063 C 233.449219 391.101563 233.703125 391.855469 233.703125 392.832031 C 233.703125 394.019531 233.269531 394.976563 232.402344 395.640625 "/>
<path style=" stroke:none;fill-rule:nonzero;fill:rgb(24.705505%,24.705505%,24.705505%);fill-opacity:1;" d="M 241.886719 395.640625 C 241.074219 396.273438 240.027344 396.542969 238.40625 396.542969 C 237.363281 396.542969 236.082031 396.34375 235.398438 396.164063 L 235.398438 393.730469 L 235.757813 393.730469 L 236.480469 394.558594 C 236.621094 394.722656 236.804688 394.882813 236.984375 395.011719 C 237.503906 395.390625 237.886719 395.496094 238.710938 395.496094 C 240.425781 395.496094 241.398438 394.648438 241.398438 393.136719 C 241.398438 392.867188 241.363281 392.597656 241.273438 392.328125 C 241.089844 391.714844 240.714844 391.351563 239.648438 390.738281 L 237.886719 389.710938 C 237.414063 389.441406 237 389.152344 236.660156 388.867188 C 235.972656 388.269531 235.597656 387.425781 235.597656 386.414063 C 235.597656 384.214844 237.128906 382.972656 239.847656 382.972656 C 240.769531 382.972656 241.8125 383.152344 242.714844 383.332031 L 242.804688 383.351563 L 242.804688 385.621094 L 242.445313 385.621094 L 241.742188 384.9375 C 240.964844 384.199219 240.585938 384.019531 239.597656 384.019531 C 238.136719 384.019531 237.324219 384.722656 237.324219 385.984375 C 237.324219 386.324219 237.378906 386.648438 237.488281 386.882813 C 237.738281 387.441406 238.101563 387.75 239.363281 388.488281 L 240.660156 389.246094 C 241.34375 389.640625 241.847656 390.019531 242.246094 390.414063 C 242.929688 391.101563 243.183594 391.855469 243.183594 392.832031 C 243.183594 394.019531 242.75 394.976563 241.886719 395.640625 "/>
<path style=" stroke:none;fill-rule:nonzero;fill:rgb(24.705505%,24.705505%,24.705505%);fill-opacity:1;" d="M 247.238281 394.164063 C 247.238281 395.265625 247.308594 395.496094 247.761719 395.75 L 248.210938 396 L 248.210938 396.378906 L 244.914063 396.378906 L 244.914063 396 L 245.382813 395.75 C 245.832031 395.496094 245.90625 395.265625 245.90625 394.164063 L 245.90625 385.351563 C 245.90625 384.253906 245.832031 384.019531 245.382813 383.765625 L 244.914063 383.515625 L 244.914063 383.136719 L 247.886719 383.136719 L 253.707031 392.109375 C 253.976563 392.523438 254.066406 392.757813 254.265625 393.335938 L 254.265625 385.351563 C 254.265625 384.253906 254.175781 384.019531 253.726563 383.765625 L 253.273438 383.515625 L 253.273438 383.136719 L 256.574219 383.136719 L 256.574219 383.515625 L 256.121094 383.765625 C 255.671875 384.019531 255.601563 384.253906 255.601563 385.351563 L 255.601563 396.433594 L 254.5 396.433594 L 247.726563 386.035156 C 247.4375 385.605469 247.347656 385.390625 247.238281 384.863281 Z M 247.238281 394.164063 "/>
<path style=" stroke:none;fill-rule:nonzero;fill:rgb(24.705505%,24.705505%,24.705505%);fill-opacity:1;" d="M 269.910156 395.75 C 270.363281 395.496094 270.433594 395.261719 270.433594 394.164063 L 270.433594 383.839844 C 270.34375 384.488281 270.289063 384.738281 270.074219 385.332031 L 266.035156 396.378906 L 264.8125 396.378906 L 260.773438 385.332031 C 260.558594 384.738281 260.503906 384.488281 260.414063 383.839844 L 260.414063 394.164063 C 260.414063 395.261719 260.503906 395.496094 260.953125 395.75 L 261.40625 396 L 261.40625 396.378906 L 258.125 396.378906 L 258.125 396 L 258.59375 395.75 C 259.042969 395.496094 259.117188 395.261719 259.117188 394.164063 L 259.117188 385.351563 C 259.117188 384.253906 259.042969 384.019531 258.59375 383.765625 L 258.125 383.511719 L 258.125 383.136719 L 261.835938 383.136719 L 265.441406 393.046875 C 265.605469 393.515625 265.65625 393.730469 265.746094 394.308594 C 265.800781 393.75 265.875 393.515625 266.035156 393.066406 L 269.640625 383.136719 L 273.191406 383.136719 L 273.191406 383.511719 L 272.738281 383.765625 C 272.273438 384.019531 272.199219 384.253906 272.199219 385.351563 L 272.199219 394.164063 C 272.199219 395.261719 272.273438 395.496094 272.738281 395.75 L 273.191406 396 L 273.191406 396.378906 L 269.441406 396.378906 L 269.441406 396 Z M 269.910156 395.75 "/>
<path style=" stroke:none;fill-rule:nonzero;fill:rgb(24.705505%,24.705505%,24.705505%);fill-opacity:1;" d="M 282.636719 385.621094 L 281.859375 384.703125 C 281.664063 384.46875 281.5 384.324219 281.25 384.234375 C 280.996094 384.144531 280.652344 384.125 280.148438 384.125 L 277.789063 384.125 L 277.789063 388.957031 L 279.609375 388.957031 C 280.472656 388.957031 280.671875 388.882813 281.070313 388.453125 L 281.554688 387.910156 L 282.007813 387.910156 L 282.007813 390.992188 L 281.554688 390.992188 L 281.070313 390.46875 C 280.652344 390.035156 280.472656 389.945313 279.609375 389.945313 L 277.789063 389.945313 L 277.789063 394.109375 C 277.789063 395.246094 277.878906 395.515625 278.382813 395.730469 L 279.015625 396 L 279.015625 396.378906 L 274.960938 396.378906 L 274.960938 396 L 275.429688 395.75 C 275.878906 395.496094 275.949219 395.265625 275.949219 394.164063 L 275.949219 385.351563 C 275.949219 384.253906 275.878906 384.019531 275.429688 383.765625 L 274.960938 383.515625 L 274.960938 383.136719 L 283.085938 383.136719 L 283.085938 385.621094 Z M 282.636719 385.621094 "/>
<path style=" stroke:none;fill-rule:nonzero;fill:rgb(24.705505%,24.705505%,24.705505%);fill-opacity:1;" d="M 285.894531 393.769531 C 285.574219 393.769531 285.261719 393.832031 285.007813 393.941406 L 285.007813 397.621094 C 285.246094 397.671875 285.492188 397.703125 285.730469 397.703125 C 286.804688 397.703125 287.335938 397.015625 287.335938 395.609375 C 287.335938 394.359375 286.871094 393.769531 285.894531 393.769531 M 286.03125 398.230469 C 285.65625 398.230469 285.363281 398.15625 285.007813 397.984375 L 284.121094 398.230469 L 284.121094 392.28125 C 284.121094 391.777344 284.078125 391.660156 283.847656 391.558594 L 283.628906 391.46875 L 283.628906 391.277344 L 285.007813 390.949219 L 285.007813 393.789063 C 285.457031 393.332031 285.921875 393.121094 286.46875 393.121094 C 287.597656 393.121094 288.265625 394.003906 288.265625 395.492188 C 288.265625 397.191406 287.417969 398.230469 286.03125 398.230469 "/>
</g>
</svg>
